<svg width="513" height="513" viewBox="0 0 513 513" fill="none" xmlns="http://www.w3.org/2000/svg">
<path opacity="0.8" d="M473.849 429.533C473.849 449.623 450.952 468.89 410.193 483.096C369.435 497.302 314.155 505.283 256.515 505.283C198.874 505.283 143.594 497.302 102.836 483.096C62.078 468.89 39.1803 449.623 39.1803 429.533C39.1803 409.443 62.078 390.176 102.836 375.97C143.594 361.764 198.874 353.783 256.515 353.783C314.155 353.783 369.435 361.764 410.193 375.97C450.952 390.176 473.849 409.443 473.849 429.533V429.533Z" fill="url(#paint0_radial)"/>
<path d="M240.469 80.1562C168.253 82.6571 101.531 104.256 101.531 133.594V422.156C101.531 451.718 170.369 475.594 256.169 475.594C341.968 475.594 411.469 451.718 411.469 422.156V133.594C411.469 104.036 341.968 80.1562 256.169 80.1562C252.14 80.1562 248.089 80.0525 244.145 80.1562C242.884 80.1893 241.709 80.1134 240.469 80.1562Z" fill="url(#paint1_linear)" stroke="#555753" stroke-width="1.0292" stroke-linecap="round"/>
<path opacity="0.7098" d="M245.15 90.8437C174.815 92.5366 118.642 111.62 112.411 133.765C112.24 134.438 112.219 421.461 112.219 422.156C112.219 443.531 180.736 464.906 256.169 464.906C334.091 464.906 400.781 443.531 400.781 422.156C400.781 421.665 400.835 135.421 400.781 134.93C397.842 110.53 334.091 90.8437 256.169 90.8437C252.428 90.8437 248.816 90.755 245.15 90.8437V90.8437Z" stroke="url(#paint2_linear)" stroke-linecap="round"/>
<path opacity="0.3" d="M277.875 224.438C277.875 212.632 268.305 203.062 256.5 203.062C244.695 203.062 235.125 212.632 235.125 224.438V416.812C235.125 428.618 244.695 438.188 256.5 438.188C268.305 438.188 277.875 428.618 277.875 416.812V224.438Z" fill="url(#paint3_linear)"/>
<path opacity="0.3" d="M331.312 219.094C331.312 207.289 321.743 197.719 309.938 197.719C298.132 197.719 288.562 207.289 288.562 219.094V411.469C288.562 423.274 298.132 432.844 309.938 432.844C321.743 432.844 331.312 423.274 331.312 411.469V219.094Z" fill="url(#paint4_linear)"/>
<path opacity="0.3" d="M374.062 203.062C374.062 194.209 366.885 187.031 358.031 187.031C349.177 187.031 342 194.209 342 203.062V406.125C342 414.979 349.177 422.156 358.031 422.156C366.885 422.156 374.062 414.979 374.062 406.125V203.062Z" fill="url(#paint5_linear)"/>
<path opacity="0.3" d="M395.438 187.031C395.438 175.226 393.045 165.656 390.094 165.656C387.142 165.656 384.75 175.226 384.75 187.031V379.406C384.75 391.211 387.142 400.781 390.094 400.781C393.045 400.781 395.438 391.211 395.438 379.406V187.031Z" fill="black"/>
<path opacity="0.3" d="M128.25 192.375C128.25 180.57 125.858 171 122.906 171C119.955 171 117.563 180.57 117.563 192.375V384.75C117.563 396.555 119.955 406.125 122.906 406.125C125.858 406.125 128.25 396.555 128.25 384.75V192.375Z" fill="white"/>
<path opacity="0.5" d="M171 203.062C171 194.209 163.823 187.031 154.969 187.031C146.115 187.031 138.938 194.209 138.938 203.062V406.125C138.938 414.979 146.115 422.156 154.969 422.156C163.823 422.156 171 414.979 171 406.125V203.062Z" fill="url(#paint6_linear)"/>
<path opacity="0.5" d="M224.438 219.094C224.438 207.289 214.868 197.719 203.063 197.719C191.257 197.719 181.688 207.289 181.688 219.094V411.469C181.688 423.274 191.257 432.844 203.063 432.844C214.868 432.844 224.438 423.274 224.438 411.469V219.094Z" fill="url(#paint7_linear)"/>
<path d="M256.397 208.171H256.396C247.358 208.171 240.03 215.498 240.03 224.537V416.489C240.03 425.527 247.358 432.854 256.396 432.854H256.397C265.436 432.854 272.763 425.527 272.763 416.489V224.537C272.763 215.498 265.436 208.171 256.397 208.171Z" stroke="url(#paint8_linear)" stroke-linecap="round"/>
<path opacity="0.49412" d="M326.032 219.005C326.032 210.2 318.84 203.062 309.969 203.062C301.098 203.062 293.906 210.2 293.906 219.005V411.568C293.906 420.373 301.098 427.511 309.969 427.511C318.84 427.511 326.032 420.373 326.032 411.568V219.005Z" stroke="url(#paint9_linear)" stroke-linecap="round"/>
<path d="M219.172 219.241C219.172 210.176 211.977 202.827 203.102 202.827C194.226 202.827 187.031 210.176 187.031 219.241V411.086C187.031 420.151 194.226 427.5 203.102 427.5C211.977 427.5 219.172 420.151 219.172 411.086V219.241Z" stroke="url(#paint10_linear)" stroke-linecap="round"/>
<path opacity="0.4" d="M395.438 187.031C395.438 175.226 393.045 165.656 390.094 165.656C387.142 165.656 384.75 175.226 384.75 187.031V379.406C384.75 391.211 387.142 400.781 390.094 400.781C393.045 400.781 395.438 391.211 395.438 379.406V187.031Z" fill="url(#paint11_linear)"/>
<path opacity="0.3" d="M128.25 192.375C128.25 180.57 125.858 171 122.906 171C119.955 171 117.563 180.57 117.563 192.375V384.75C117.563 396.555 119.955 406.125 122.906 406.125C125.858 406.125 128.25 396.555 128.25 384.75V192.375Z" fill="url(#paint12_linear)"/>
<path d="M166.553 208.789C166.553 199.724 161.567 192.375 155.417 192.375C149.267 192.375 144.281 199.724 144.281 208.789V400.634C144.281 409.699 149.267 417.048 155.417 417.048C161.567 417.048 166.553 409.699 166.553 400.634V208.789Z" stroke="url(#paint13_linear)" stroke-linecap="round"/>
<path opacity="0.49412" d="M357.642 192.375H357.641C351.907 192.375 347.258 197.024 347.258 202.758V406.44C347.258 412.174 351.907 416.823 357.641 416.823H357.642C363.376 416.823 368.025 412.174 368.025 406.44V202.758C368.025 197.024 363.376 192.375 357.642 192.375Z" stroke="url(#paint14_linear)" stroke-linecap="round"/>
<path opacity="0.55294" d="M247.822 165.656C187.085 166.479 134.684 175.884 106.875 189.244V232.913C136.02 246.913 192.054 256.5 256.5 256.5C320.946 256.5 376.98 246.913 406.125 232.913V189.244C376.98 175.243 320.946 165.656 256.5 165.656C253.55 165.656 250.729 165.614 247.822 165.656Z" fill="url(#paint15_radial)"/>
<path d="M239.603 69.5661C156.091 72.8514 90.8223 100.256 90.8223 133.444V165.549C90.8223 200.936 164.855 229.749 256.318 229.749C347.782 229.749 422.156 200.936 422.156 165.549V133.444C422.156 98.044 347.782 69.5661 256.318 69.5661C250.6 69.5661 245.171 69.347 239.603 69.5661V69.5661Z" fill="url(#paint16_linear)" stroke="#555753" stroke-linecap="round"/>
<path d="M208.406 96.1875L203.062 117.563H213.75C213.75 101.531 238.342 74.851 256.5 74.851C274.658 74.851 299.25 101.531 299.25 117.563H309.938L304.594 96.1875C301.697 76.6198 288.562 48.0938 256.5 48.1323C224.438 48.1707 211.164 77.5379 208.406 96.1875Z" fill="url(#paint17_linear)" stroke="#555753" stroke-width="2" stroke-linecap="round"/>
<path d="M416.812 130.137C416.812 159.635 344.992 181.687 256.499 181.687C168.007 181.687 96.1872 157.747 96.1872 128.249C96.1872 98.7519 168.007 74.812 256.499 74.812C344.992 74.812 416.812 107.231 416.812 130.137Z" fill="url(#paint18_linear)"/>
<path opacity="0.3" d="M345.969 112.219C345.969 120.128 336.543 127.713 319.765 133.306C302.988 138.899 280.232 142.04 256.504 142.04C232.777 142.04 210.021 138.899 193.244 133.306C176.466 127.713 167.04 120.128 167.04 112.219C167.04 104.31 176.466 96.7248 193.244 91.1322C210.021 85.5396 232.777 82.3978 256.504 82.3978C280.232 82.3978 302.988 85.5396 319.765 91.1322C336.543 96.7248 345.969 104.31 345.969 112.219V112.219Z" fill="url(#paint19_radial)"/>
<path opacity="0.56471" d="M240.789 80.1563C162.621 83.0141 101.531 106.847 101.531 135.71V163.626C101.531 194.416 170.829 219.468 256.436 219.468C342.043 219.468 411.65 194.416 411.65 163.626V135.71C411.65 104.924 342.043 80.1563 256.436 80.1563C251.081 80.1563 245.994 79.9661 240.789 80.1563V80.1563Z" stroke="url(#paint20_linear)" stroke-linecap="round"/>
<path d="M411.813 124.771C411.813 132.034 407.8 139.225 400.003 145.934C392.207 152.644 380.779 158.74 366.373 163.875C351.967 169.01 334.864 173.084 316.042 175.863C297.219 178.642 277.045 180.073 256.672 180.073C236.298 180.073 216.125 178.642 197.302 175.863C178.479 173.084 161.377 169.01 146.971 163.875C132.565 158.74 121.137 152.644 113.34 145.934C105.544 139.225 101.531 132.034 101.531 124.771C101.531 117.509 105.544 110.318 113.34 103.608C121.137 96.8989 132.565 90.8025 146.971 85.6673C161.377 80.5321 178.479 76.4586 197.302 73.6794C216.125 70.9003 236.298 69.4699 256.672 69.4699C277.045 69.4699 297.219 70.9003 316.042 73.6794C334.864 76.4586 351.967 80.5321 366.373 85.6673C380.779 90.8025 392.207 96.8989 400.003 103.608C407.8 110.318 411.813 117.509 411.813 124.771Z" stroke="url(#paint21_radial)" stroke-width="0.89376" stroke-linecap="round"/>
<g opacity="0.55686">
<path d="M342.005 112.218C342.005 116.47 339.19 120.548 334.179 123.554C329.168 126.561 322.372 128.25 315.286 128.25C308.2 128.25 301.404 126.561 296.393 123.554C291.382 120.548 288.567 116.47 288.567 112.218C288.567 107.967 291.382 103.889 296.393 100.883C301.404 97.8761 308.2 96.1871 315.286 96.1871C322.372 96.1871 329.168 97.8761 334.179 100.883C339.19 103.889 342.005 107.967 342.005 112.218V112.218Z" fill="url(#paint22_radial)"/>
<path d="M224.437 112.218C224.437 116.47 221.622 120.548 216.611 123.554C211.6 126.561 204.804 128.25 197.718 128.25C190.632 128.25 183.836 126.561 178.825 123.554C173.814 120.548 170.999 116.47 170.999 112.218C170.999 107.967 173.814 103.889 178.825 100.883C183.836 97.8761 190.632 96.1871 197.718 96.1871C204.804 96.1871 211.6 97.8761 216.611 100.883C221.622 103.889 224.437 107.967 224.437 112.218V112.218Z" fill="url(#paint23_radial)"/>
</g>
<path d="M320.659 96.1872H302.419C299.951 96.1872 298.529 97.9665 299.241 100.161L303.385 112.927C304.098 115.122 306.675 116.901 309.143 116.901H327.383C329.85 116.901 331.273 115.122 330.56 112.927L326.416 100.161C325.704 97.9665 323.126 96.1872 320.659 96.1872Z" fill="url(#paint24_linear)"/>
<path d="M185.614 116.901H203.847C206.326 116.901 208.888 115.132 209.604 112.926L213.748 100.161C214.462 97.96 213.05 96.1872 210.571 96.1872H192.338C189.858 96.1872 187.295 97.96 186.58 100.161L182.437 112.926C181.721 115.132 183.134 116.901 185.614 116.901Z" fill="url(#paint25_linear)"/>
<path d="M208.406 96.1875L203.062 117.563H213.75C213.75 101.531 238.342 74.851 256.5 74.851C274.658 74.851 299.25 101.531 299.25 117.563H309.938L304.594 96.1875C301.697 76.6198 288.562 48.0938 256.5 48.1323C224.438 48.1707 211.164 77.5379 208.406 96.1875Z" fill="url(#paint26_linear)"/>
<path d="M187.031 117.563H208.406C208.406 117.563 213.75 80.1563 256.5 80.1948C299.271 80.2332 304.594 117.563 304.594 117.563H325.659" fill="url(#paint27_linear)"/>
<path d="M187.031 117.563H208.406C208.406 117.563 213.75 80.1563 256.5 80.1948C299.271 80.2332 304.594 117.563 304.594 117.563H325.659" stroke="white" stroke-linecap="round"/>
<path d="M342.508 124.769C342.508 128.787 340.288 132.766 335.974 136.477C331.661 140.189 325.339 143.562 317.369 146.403C309.399 149.244 299.937 151.498 289.524 153.035C279.11 154.573 267.949 155.364 256.678 155.364C245.407 155.364 234.246 154.573 223.832 153.035C213.419 151.498 203.957 149.244 195.987 146.403C188.017 143.562 181.695 140.189 177.382 136.477C173.068 132.766 170.848 128.787 170.848 124.769C170.848 120.752 173.068 116.773 177.382 113.061C181.695 109.35 188.017 105.977 195.987 103.136C203.957 100.295 213.419 98.0414 223.832 96.5038C234.246 94.9663 245.407 94.175 256.678 94.175C267.949 94.175 279.11 94.9663 289.524 96.5038C299.937 98.0414 309.399 100.295 317.369 103.136C325.339 105.977 331.661 109.35 335.974 113.061C340.288 116.773 342.508 120.752 342.508 124.769Z" stroke="url(#paint28_radial)" stroke-width="1.6155" stroke-linecap="round"/>
<path opacity="0.26275" d="M251.199 113.373H251.669L251.862 114.164L252.364 113.373H252.855L252.567 114.869H252.193L252.407 113.769L251.894 114.581H251.691L251.477 113.769L251.274 114.869H250.9L251.199 113.373V113.373ZM253.176 113.747H253.539L253.315 114.869H252.962L253.176 113.747V113.747ZM253.262 113.309H253.625L253.561 113.608H253.208L253.262 113.309V113.309ZM254.79 113.779L254.726 114.068C254.683 114.046 254.64 114.014 254.587 114.004C254.544 113.982 254.501 113.972 254.448 113.972C254.341 113.972 254.245 114.014 254.17 114.089C254.095 114.175 254.052 114.271 254.052 114.388C254.052 114.474 254.074 114.527 254.127 114.57C254.17 114.613 254.234 114.634 254.32 114.634C254.373 114.634 254.427 114.634 254.48 114.613C254.533 114.591 254.587 114.57 254.64 114.538L254.587 114.827C254.523 114.848 254.469 114.869 254.405 114.88C254.341 114.891 254.288 114.891 254.223 114.891C254.052 114.891 253.914 114.859 253.817 114.773C253.721 114.698 253.678 114.581 253.678 114.442C253.678 114.346 253.689 114.26 253.732 114.175C253.764 114.089 253.817 114.014 253.881 113.94C253.956 113.865 254.031 113.811 254.127 113.779C254.223 113.736 254.33 113.715 254.448 113.715C254.512 113.715 254.565 113.726 254.619 113.736C254.672 113.747 254.736 113.758 254.79 113.779V113.779ZM255.869 114.046C255.837 114.036 255.816 114.025 255.784 114.014C255.752 114.014 255.72 114.004 255.688 114.004C255.591 114.004 255.517 114.036 255.463 114.1C255.399 114.153 255.356 114.239 255.335 114.346L255.239 114.869H254.875L255.089 113.747H255.453L255.41 113.94C255.463 113.865 255.517 113.811 255.591 113.779C255.666 113.736 255.741 113.715 255.827 113.715C255.837 113.715 255.859 113.726 255.869 113.726H255.923L255.869 114.046V114.046ZM256.585 113.972C256.5 113.972 256.425 114.014 256.361 114.1C256.297 114.185 256.275 114.292 256.275 114.42C256.275 114.495 256.286 114.549 256.318 114.581C256.35 114.623 256.404 114.634 256.457 114.634C256.553 114.634 256.628 114.591 256.692 114.517C256.746 114.431 256.778 114.324 256.778 114.185C256.778 114.121 256.767 114.068 256.735 114.025C256.703 113.993 256.65 113.972 256.585 113.972ZM256.617 113.715C256.788 113.715 256.917 113.758 257.013 113.843C257.109 113.929 257.152 114.046 257.152 114.196C257.152 114.282 257.141 114.356 257.109 114.442C257.077 114.517 257.034 114.591 256.981 114.656C256.906 114.73 256.831 114.794 256.735 114.837C256.65 114.869 256.543 114.891 256.425 114.891C256.265 114.891 256.137 114.848 256.04 114.762C255.944 114.677 255.901 114.57 255.901 114.42C255.901 114.335 255.912 114.26 255.944 114.175C255.976 114.1 256.019 114.025 256.072 113.95C256.137 113.875 256.222 113.822 256.308 113.779C256.404 113.736 256.511 113.715 256.617 113.715V113.715ZM258.37 113.779L258.317 114.057C258.253 114.025 258.178 114.004 258.114 113.982C258.039 113.961 257.975 113.961 257.911 113.961C257.847 113.961 257.793 113.972 257.75 113.982C257.718 114.004 257.697 114.025 257.697 114.068C257.697 114.078 257.708 114.1 257.729 114.11C257.75 114.121 257.793 114.132 257.857 114.153L257.921 114.164C258.06 114.196 258.167 114.228 258.221 114.281C258.274 114.324 258.306 114.399 258.306 114.485C258.306 114.613 258.253 114.709 258.156 114.784C258.05 114.859 257.911 114.891 257.729 114.891C257.654 114.891 257.569 114.891 257.494 114.88C257.408 114.859 257.334 114.848 257.248 114.827L257.301 114.538C257.366 114.581 257.44 114.613 257.505 114.624C257.579 114.645 257.654 114.656 257.74 114.656C257.814 114.656 257.868 114.645 257.9 114.634C257.943 114.613 257.964 114.581 257.964 114.549C257.964 114.527 257.953 114.506 257.932 114.495C257.911 114.485 257.868 114.463 257.793 114.452L257.729 114.442C257.601 114.41 257.515 114.378 257.462 114.324C257.408 114.271 257.376 114.196 257.376 114.11C257.376 113.982 257.43 113.886 257.515 113.822C257.611 113.758 257.75 113.715 257.921 113.715C257.996 113.715 258.071 113.726 258.146 113.736C258.221 113.747 258.295 113.758 258.37 113.779V113.779ZM258.584 114.431L258.712 113.747H259.076L258.958 114.324C258.958 114.367 258.947 114.399 258.947 114.42C258.937 114.453 258.937 114.474 258.937 114.485C258.937 114.527 258.947 114.559 258.969 114.581C258.99 114.613 259.033 114.624 259.076 114.624C259.15 114.624 259.204 114.591 259.257 114.538C259.311 114.474 259.353 114.399 259.375 114.292L259.482 113.747H259.834L259.621 114.869H259.257L259.289 114.698C259.236 114.762 259.172 114.816 259.097 114.848C259.033 114.88 258.958 114.891 258.894 114.891C258.787 114.891 258.712 114.869 258.648 114.816C258.595 114.762 258.573 114.688 258.573 114.581V114.506C258.573 114.485 258.584 114.452 258.584 114.431V114.431ZM261.085 113.779L261.031 114.068C260.989 114.046 260.935 114.014 260.892 114.004C260.85 113.982 260.796 113.972 260.754 113.972C260.636 113.972 260.54 114.014 260.465 114.089C260.401 114.175 260.358 114.271 260.358 114.388C260.358 114.474 260.379 114.527 260.433 114.57C260.476 114.613 260.54 114.634 260.625 114.634C260.679 114.634 260.732 114.634 260.786 114.613C260.839 114.591 260.892 114.57 260.935 114.538L260.882 114.827C260.828 114.848 260.764 114.869 260.711 114.88C260.647 114.891 260.583 114.891 260.529 114.891C260.347 114.891 260.219 114.859 260.123 114.773C260.027 114.698 259.973 114.581 259.973 114.442C259.973 114.346 259.995 114.26 260.027 114.175C260.07 114.089 260.112 114.014 260.176 113.94C260.251 113.865 260.337 113.811 260.433 113.779C260.529 113.736 260.636 113.715 260.754 113.715C260.807 113.715 260.871 113.726 260.925 113.736C260.978 113.747 261.031 113.758 261.085 113.779V113.779ZM261.48 113.309H261.844L261.673 114.153L262.154 113.747H262.581L261.929 114.26L262.399 114.869H261.993L261.63 114.378L261.534 114.869H261.181L261.48 113.309ZM263.618 113.779L263.564 114.057C263.5 114.025 263.425 114.004 263.361 113.982C263.286 113.961 263.222 113.961 263.169 113.961C263.094 113.961 263.041 113.972 262.998 113.982C262.966 114.004 262.944 114.025 262.944 114.068C262.944 114.078 262.955 114.1 262.977 114.11C262.998 114.121 263.041 114.132 263.105 114.153L263.169 114.164C263.308 114.196 263.415 114.228 263.468 114.281C263.532 114.324 263.554 114.399 263.554 114.485C263.554 114.613 263.5 114.709 263.404 114.784C263.297 114.859 263.158 114.891 262.977 114.891C262.902 114.891 262.816 114.891 262.741 114.88C262.667 114.859 262.581 114.848 262.496 114.827L262.549 114.538C262.613 114.581 262.688 114.613 262.763 114.624C262.827 114.645 262.902 114.656 262.987 114.656C263.062 114.656 263.115 114.645 263.158 114.634C263.19 114.613 263.212 114.581 263.212 114.549C263.212 114.527 263.201 114.506 263.18 114.495C263.158 114.485 263.115 114.463 263.051 114.452L262.987 114.442C262.859 114.41 262.763 114.378 262.709 114.324C262.656 114.271 262.624 114.196 262.624 114.11C262.624 113.982 262.677 113.886 262.763 113.822C262.859 113.758 262.998 113.715 263.169 113.715C263.244 113.715 263.319 113.726 263.393 113.736C263.468 113.747 263.543 113.758 263.618 113.779" fill="black"/>
<defs>
<radialGradient id="paint0_radial" cx="0" cy="0" r="1" gradientUnits="userSpaceOnUse" gradientTransform="translate(256.514 429.53) scale(205.52 71.6335)">
<stop/>
<stop offset="1" stop-opacity="0"/>
</radialGradient>
<linearGradient id="paint1_linear" x1="487.681" y1="190.879" x2="65.4418" y2="190.879" gradientUnits="userSpaceOnUse">
<stop stop-color="#555753"/>
<stop offset="0.61818" stop-color="#D5D9D2"/>
<stop offset="1" stop-color="#888A85"/>
</linearGradient>
<linearGradient id="paint2_linear" x1="201.684" y1="419.484" x2="451.75" y2="419.484" gradientUnits="userSpaceOnUse">
<stop stop-color="white"/>
<stop offset="1" stop-color="white" stop-opacity="0"/>
</linearGradient>
<linearGradient id="paint3_linear" x1="227.073" y1="289.898" x2="270.545" y2="289.898" gradientUnits="userSpaceOnUse">
<stop/>
<stop offset="1" stop-color="white"/>
</linearGradient>
<linearGradient id="paint4_linear" x1="288.539" y1="279.884" x2="341.849" y2="281.113" gradientUnits="userSpaceOnUse">
<stop/>
<stop offset="1" stop-color="white"/>
</linearGradient>
<linearGradient id="paint5_linear" x1="341.987" y1="272.531" x2="406.593" y2="272.531" gradientUnits="userSpaceOnUse">
<stop/>
<stop offset="1" stop-color="white"/>
</linearGradient>
<linearGradient id="paint6_linear" x1="85.2728" y1="276.026" x2="163.634" y2="277.31" gradientUnits="userSpaceOnUse">
<stop/>
<stop offset="1" stop-color="white"/>
</linearGradient>
<linearGradient id="paint7_linear" x1="114.759" y1="284.501" x2="213.623" y2="283.692" gradientUnits="userSpaceOnUse">
<stop/>
<stop offset="1" stop-color="white"/>
</linearGradient>
<linearGradient id="paint8_linear" x1="276.022" y1="438.187" x2="240.171" y2="429.598" gradientUnits="userSpaceOnUse">
<stop stop-color="white"/>
<stop offset="1" stop-color="white" stop-opacity="0"/>
</linearGradient>
<linearGradient id="paint9_linear" x1="346.296" y1="440.405" x2="309.969" y2="405.842" gradientUnits="userSpaceOnUse">
<stop stop-color="white"/>
<stop offset="1" stop-color="white" stop-opacity="0"/>
</linearGradient>
<linearGradient id="paint10_linear" x1="224.514" y1="424.165" x2="188.369" y2="411.052" gradientUnits="userSpaceOnUse">
<stop stop-color="white"/>
<stop offset="1" stop-color="white" stop-opacity="0"/>
</linearGradient>
<linearGradient id="paint11_linear" x1="390.756" y1="435.623" x2="390.756" y2="351.063" gradientUnits="userSpaceOnUse">
<stop stop-color="white"/>
<stop offset="1" stop-color="white" stop-opacity="0"/>
</linearGradient>
<linearGradient id="paint12_linear" x1="122.906" y1="406.788" x2="122.906" y2="319.791" gradientUnits="userSpaceOnUse">
<stop stop-color="white"/>
<stop offset="1" stop-color="white" stop-opacity="0"/>
</linearGradient>
<linearGradient id="paint13_linear" x1="180.944" y1="404.364" x2="149.297" y2="401.242" gradientUnits="userSpaceOnUse">
<stop stop-color="white"/>
<stop offset="1" stop-color="white" stop-opacity="0"/>
</linearGradient>
<linearGradient id="paint14_linear" x1="381.124" y1="429.718" x2="348.663" y2="409.753" gradientUnits="userSpaceOnUse">
<stop stop-color="white"/>
<stop offset="1" stop-color="white" stop-opacity="0"/>
</linearGradient>
<radialGradient id="paint15_radial" cx="0" cy="0" r="1" gradientUnits="userSpaceOnUse" gradientTransform="translate(256.5 211.072) scale(149.625 45.4307)">
<stop/>
<stop offset="1" stop-opacity="0"/>
</radialGradient>
<linearGradient id="paint16_linear" x1="462.769" y1="124.894" x2="56.1499" y2="124.894" gradientUnits="userSpaceOnUse">
<stop stop-color="#6D6F6A"/>
<stop offset="0.61818" stop-color="#E7E8E5"/>
<stop offset="1" stop-color="#999B96"/>
</linearGradient>
<linearGradient id="paint17_linear" x1="309.938" y1="82.8282" x2="203.062" y2="82.8282" gradientUnits="userSpaceOnUse">
<stop stop-color="#95998E"/>
<stop offset="0.59524" stop-color="white"/>
<stop offset="1" stop-color="#DFDFDB"/>
</linearGradient>
<linearGradient id="paint18_linear" x1="287.166" y1="106.705" x2="189.597" y2="215.1" gradientUnits="userSpaceOnUse">
<stop stop-color="#BABDB6"/>
<stop offset="1" stop-color="white"/>
</linearGradient>
<radialGradient id="paint19_radial" cx="0" cy="0" r="1" gradientUnits="userSpaceOnUse" gradientTransform="translate(256.504 112.219) scale(89.4643 29.8216)">
<stop/>
<stop offset="1" stop-opacity="0"/>
</radialGradient>
<linearGradient id="paint20_linear" x1="195.015" y1="175.008" x2="495.13" y2="175.008" gradientUnits="userSpaceOnUse">
<stop stop-color="white"/>
<stop offset="1" stop-color="white" stop-opacity="0"/>
</linearGradient>
<radialGradient id="paint21_radial" cx="0" cy="0" r="1" gradientUnits="userSpaceOnUse" gradientTransform="translate(210.228 185.41) rotate(-10.7514) scale(198.2 45.5402)">
<stop stop-color="white"/>
<stop offset="1" stop-color="white" stop-opacity="0"/>
</radialGradient>
<radialGradient id="paint22_radial" cx="0" cy="0" r="1" gradientUnits="userSpaceOnUse" gradientTransform="translate(315.286 112.218) scale(26.7187 16.0311)">
<stop/>
<stop offset="1" stop-opacity="0"/>
</radialGradient>
<radialGradient id="paint23_radial" cx="0" cy="0" r="1" gradientUnits="userSpaceOnUse" gradientTransform="translate(197.718 112.218) scale(26.7187 16.0311)">
<stop/>
<stop offset="1" stop-opacity="0"/>
</radialGradient>
<linearGradient id="paint24_linear" x1="314.274" y1="96.8551" x2="311.446" y2="109.077" gradientUnits="userSpaceOnUse">
<stop stop-color="#888A85"/>
<stop offset="1" stop-color="#D3D7CF"/>
</linearGradient>
<linearGradient id="paint25_linear" x1="197.05" y1="87.136" x2="201.909" y2="105.26" gradientUnits="userSpaceOnUse">
<stop stop-color="#D3D7CF"/>
<stop offset="1" stop-color="#EEEEEC"/>
</linearGradient>
<linearGradient id="paint26_linear" x1="309.938" y1="82.8282" x2="203.062" y2="82.8282" gradientUnits="userSpaceOnUse">
<stop stop-color="#95998E"/>
<stop offset="0.59524" stop-color="white"/>
<stop offset="1" stop-color="#DFDFDB"/>
</linearGradient>
<linearGradient id="paint27_linear" x1="259.172" y1="88.0832" x2="259.172" y2="116.921" gradientUnits="userSpaceOnUse">
<stop stop-opacity="0.32317"/>
<stop offset="1" stop-opacity="0"/>
</linearGradient>
<radialGradient id="paint28_radial" cx="0" cy="0" r="1" gradientUnits="userSpaceOnUse" gradientTransform="translate(186.897 150.304) rotate(-1.4491) scale(148.521 25.1949)">
<stop stop-color="white"/>
<stop offset="1" stop-color="white" stop-opacity="0"/>
</radialGradient>
</defs>
</svg>
