<svg width="512" height="512" viewBox="0 0 512 512" fill="none" xmlns="http://www.w3.org/2000/svg">
<rect x="6" y="6" width="506" height="506" fill="black"/>
<rect width="506" height="506" fill="#FDE58F"/>
<path opacity="0.8" d="M446.26 389.075C446.26 406.62 426.264 423.446 390.67 435.852C355.076 448.258 306.801 455.227 256.464 455.227C206.126 455.227 157.851 448.258 122.257 435.852C86.6631 423.446 66.6667 406.62 66.6667 389.075C66.6667 371.531 86.6631 354.705 122.257 342.299C157.851 329.893 206.126 322.923 256.464 322.923C306.801 322.923 355.076 329.893 390.67 342.299C426.264 354.705 446.26 371.531 446.26 389.075V389.075Z" fill="url(#paint0_radial)"/>
<path d="M242.451 83.9664C179.385 86.1504 121.117 105.013 121.117 130.633V382.633C121.117 408.449 181.233 429.3 256.161 429.3C331.089 429.3 391.784 408.449 391.784 382.633V130.633C391.784 104.821 331.089 83.9664 256.161 83.9664C252.643 83.9664 249.105 83.8759 245.661 83.9664C244.56 83.9953 243.533 83.9291 242.451 83.9664Z" fill="url(#paint1_linear)" stroke="#555753" stroke-width="1.0292" stroke-linecap="round"/>
<path opacity="0.7098" d="M246.539 93.2998C185.116 94.7782 136.06 111.444 130.619 130.782C130.469 131.37 130.451 382.026 130.451 382.633C130.451 401.3 190.287 419.966 256.161 419.966C324.211 419.966 382.451 401.3 382.451 382.633C382.451 382.204 382.497 132.229 382.451 131.8C379.884 110.492 324.211 93.2998 256.161 93.2998C252.895 93.2998 249.74 93.2223 246.539 93.2998V93.2998Z" stroke="url(#paint2_linear)" stroke-linecap="round"/>
<path opacity="0.3" d="M275.117 209.966C275.117 199.657 266.76 191.3 256.451 191.3C246.141 191.3 237.784 199.657 237.784 209.966V377.966C237.784 388.276 246.141 396.633 256.451 396.633C266.76 396.633 275.117 388.276 275.117 377.966V209.966Z" fill="url(#paint3_linear)"/>
<path opacity="0.3" d="M321.784 205.3C321.784 194.991 313.427 186.633 303.117 186.633C292.808 186.633 284.451 194.991 284.451 205.3V373.3C284.451 383.609 292.808 391.967 303.117 391.967C313.427 391.967 321.784 383.609 321.784 373.3V205.3Z" fill="url(#paint4_linear)"/>
<path opacity="0.3" d="M359.117 191.3C359.117 183.568 352.849 177.3 345.117 177.3C337.386 177.3 331.117 183.568 331.117 191.3V368.633C331.117 376.365 337.386 382.633 345.117 382.633C352.849 382.633 359.117 376.365 359.117 368.633V191.3Z" fill="url(#paint5_linear)"/>
<path opacity="0.3" d="M377.784 177.3C377.784 166.991 375.695 158.633 373.117 158.633C370.54 158.633 368.451 166.991 368.451 177.3V345.3C368.451 355.609 370.54 363.967 373.117 363.967C375.695 363.967 377.784 355.609 377.784 345.3V177.3Z" fill="black"/>
<path opacity="0.3" d="M144.451 181.966C144.451 171.657 142.361 163.3 139.784 163.3C137.207 163.3 135.117 171.657 135.117 181.966V349.966C135.117 360.276 137.207 368.633 139.784 368.633C142.361 368.633 144.451 360.276 144.451 349.966V181.966Z" fill="white"/>
<path opacity="0.5" d="M181.784 191.3C181.784 183.568 175.516 177.3 167.784 177.3C160.052 177.3 153.784 183.568 153.784 191.3V368.633C153.784 376.365 160.052 382.633 167.784 382.633C175.516 382.633 181.784 376.365 181.784 368.633V191.3Z" fill="url(#paint6_linear)"/>
<path opacity="0.5" d="M228.451 205.3C228.451 194.991 220.093 186.633 209.784 186.633C199.475 186.633 191.117 194.991 191.117 205.3V373.3C191.117 383.609 199.475 391.967 209.784 391.967C220.093 391.967 228.451 383.609 228.451 373.3V205.3Z" fill="url(#paint7_linear)"/>
<path d="M256.361 195.761H256.36C248.467 195.761 242.068 202.16 242.068 210.053V377.684C242.068 385.577 248.467 391.976 256.36 391.976H256.361C264.254 391.976 270.653 385.577 270.653 377.684V210.053C270.653 202.16 264.254 195.761 256.361 195.761Z" stroke="url(#paint8_linear)" stroke-linecap="round"/>
<path opacity="0.49412" d="M317.173 205.222C317.173 197.533 310.892 191.3 303.145 191.3C295.398 191.3 289.117 197.533 289.117 205.222V373.387C289.117 381.076 295.398 387.309 303.145 387.309C310.892 387.309 317.173 381.076 317.173 373.387V205.222Z" stroke="url(#paint9_linear)" stroke-linecap="round"/>
<path d="M223.852 205.429C223.852 197.512 217.569 191.094 209.818 191.094C202.067 191.094 195.784 197.512 195.784 205.429V372.966C195.784 380.882 202.067 387.3 209.818 387.3C217.569 387.3 223.852 380.882 223.852 372.966V205.429Z" stroke="url(#paint10_linear)" stroke-linecap="round"/>
<path opacity="0.4" d="M377.784 177.3C377.784 166.991 375.695 158.633 373.117 158.633C370.54 158.633 368.451 166.991 368.451 177.3V345.3C368.451 355.609 370.54 363.967 373.117 363.967C375.695 363.967 377.784 355.609 377.784 345.3V177.3Z" fill="url(#paint11_linear)"/>
<path opacity="0.3" d="M144.451 181.966C144.451 171.657 142.361 163.3 139.784 163.3C137.207 163.3 135.117 171.657 135.117 181.966V349.966C135.117 360.276 137.207 368.633 139.784 368.633C142.361 368.633 144.451 360.276 144.451 349.966V181.966Z" fill="url(#paint12_linear)"/>
<path d="M177.9 196.301C177.9 188.384 173.547 181.966 168.176 181.966C162.805 181.966 158.451 188.384 158.451 196.301V363.838C158.451 371.754 162.805 378.172 168.176 378.172C173.547 378.172 177.9 371.754 177.9 363.838V196.301Z" stroke="url(#paint13_linear)" stroke-linecap="round"/>
<path opacity="0.49412" d="M344.777 181.966H344.777C339.769 181.966 335.709 186.026 335.709 191.034V368.908C335.709 373.916 339.769 377.976 344.777 377.976H344.777C349.785 377.976 353.845 373.916 353.845 368.908V191.034C353.845 186.026 349.785 181.966 344.777 181.966Z" stroke="url(#paint14_linear)" stroke-linecap="round"/>
<path opacity="0.55294" d="M248.872 158.633C195.831 159.352 150.069 167.565 125.784 179.232V217.368C151.236 229.594 200.171 237.966 256.451 237.966C312.731 237.966 361.665 229.594 387.117 217.368V179.232C361.665 167.005 312.731 158.633 256.451 158.633C253.875 158.633 251.411 158.596 248.872 158.633Z" fill="url(#paint15_radial)"/>
<path d="M241.695 74.7181C168.764 77.5872 111.765 101.52 111.765 130.502V158.54C111.765 189.443 176.417 214.605 256.292 214.605C336.167 214.605 401.117 189.443 401.117 158.54V130.502C401.117 99.5877 336.167 74.7181 256.292 74.7181C251.299 74.7181 246.557 74.5268 241.695 74.7181V74.7181Z" fill="url(#paint16_linear)" stroke="#555753" stroke-linecap="round"/>
<path d="M214.451 97.9664L209.784 116.633H219.117C219.117 102.633 240.593 79.3334 256.451 79.3334C272.308 79.3334 293.784 102.633 293.784 116.633H303.117L298.451 97.9664C295.921 80.878 284.451 55.9664 256.451 56C228.451 56.0336 216.859 81.6798 214.451 97.9664Z" fill="url(#paint17_linear)" stroke="#555753" stroke-width="2" stroke-linecap="round"/>
<path d="M396.45 127.615C396.45 153.374 333.73 172.632 256.45 172.632C179.17 172.632 116.451 151.726 116.451 125.966C116.451 100.206 179.17 79.2992 256.45 79.2992C333.73 79.2992 396.45 107.61 396.45 127.615Z" fill="url(#paint18_linear)"/>
<path opacity="0.3" d="M334.583 111.967C334.583 118.874 326.352 125.498 311.7 130.382C297.048 135.266 277.176 138.009 256.455 138.009C235.734 138.009 215.861 135.266 201.209 130.382C186.557 125.498 178.326 118.874 178.326 111.967C178.326 105.06 186.557 98.4356 201.209 93.5516C215.861 88.6676 235.734 85.9238 256.455 85.9238C277.176 85.9238 297.048 88.6676 311.7 93.5516C326.352 98.4356 334.583 105.06 334.583 111.967V111.967Z" fill="url(#paint19_radial)"/>
<path opacity="0.56471" d="M242.731 83.9664C174.467 86.4621 121.117 107.275 121.117 132.481V156.86C121.117 183.749 181.635 205.626 256.395 205.626C331.155 205.626 391.943 183.749 391.943 156.86V132.481C391.943 105.595 331.155 83.9664 256.395 83.9664C251.719 83.9664 247.276 83.8003 242.731 83.9664V83.9664Z" stroke="url(#paint20_linear)" stroke-linecap="round"/>
<path d="M392.084 122.928C392.084 129.271 388.58 135.551 381.771 141.41C374.963 147.269 364.983 152.593 352.402 157.078C339.821 161.562 324.886 165.12 308.448 167.547C292.01 169.974 274.393 171.223 256.601 171.223C238.809 171.223 221.191 169.974 204.753 167.547C188.316 165.12 173.38 161.562 160.799 157.078C148.219 152.593 138.239 147.269 131.43 141.41C124.622 135.551 121.117 129.271 121.117 122.928C121.117 116.586 124.622 110.306 131.43 104.447C138.239 98.5876 148.219 93.2637 160.799 88.7791C173.38 84.2946 188.316 80.7372 204.753 78.3102C221.191 75.8832 238.809 74.634 256.601 74.634C274.393 74.634 292.01 75.8832 308.448 78.3102C324.886 80.7372 339.821 84.2946 352.402 88.7791C364.983 93.2637 374.963 98.5876 381.771 104.447C388.58 110.306 392.084 116.586 392.084 122.928Z" stroke="url(#paint21_radial)" stroke-width="0.89376" stroke-linecap="round"/>
<g opacity="0.55686">
<path d="M331.121 111.966C331.121 115.679 328.663 119.24 324.287 121.866C319.911 124.491 313.976 125.966 307.788 125.966C301.6 125.966 295.665 124.491 291.289 121.866C286.913 119.24 284.455 115.679 284.455 111.966C284.455 108.253 286.913 104.692 291.289 102.067C295.665 99.4412 301.6 97.9662 307.788 97.9662C313.976 97.9662 319.911 99.4412 324.287 102.067C328.663 104.692 331.121 108.253 331.121 111.966V111.966Z" fill="url(#paint22_radial)"/>
<path d="M228.45 111.966C228.45 115.679 225.992 119.24 221.616 121.866C217.24 124.491 211.305 125.966 205.117 125.966C198.928 125.966 192.994 124.491 188.618 121.866C184.242 119.24 181.784 115.679 181.784 111.966C181.784 108.253 184.242 104.692 188.618 102.067C192.994 99.4412 198.928 97.9662 205.117 97.9662C211.305 97.9662 217.24 99.4412 221.616 102.067C225.992 104.692 228.45 108.253 228.45 111.966V111.966Z" fill="url(#paint23_radial)"/>
</g>
<path d="M312.48 97.9662H296.551C294.397 97.9662 293.154 99.5201 293.776 101.437L297.395 112.585C298.017 114.502 300.269 116.055 302.423 116.055H318.352C320.507 116.055 321.749 114.502 321.127 112.585L317.508 101.437C316.886 99.5201 314.635 97.9662 312.48 97.9662Z" fill="url(#paint24_linear)"/>
<path d="M194.546 116.055H210.469C212.634 116.055 214.872 114.511 215.497 112.584L219.116 101.436C219.74 99.5143 218.506 97.9661 216.341 97.9661H200.418C198.253 97.9661 196.014 99.5143 195.39 101.436L191.772 112.584C191.146 114.511 192.381 116.055 194.546 116.055Z" fill="url(#paint25_linear)"/>
<path d="M214.451 97.9664L209.784 116.633H219.117C219.117 102.633 240.593 79.3334 256.451 79.3334C272.308 79.3334 293.784 102.633 293.784 116.633H303.117L298.451 97.9664C295.921 80.878 284.451 55.9664 256.451 56C228.451 56.0336 216.859 81.6798 214.451 97.9664Z" fill="url(#paint26_linear)"/>
<path d="M195.784 116.633H214.451C214.451 116.633 219.117 83.9664 256.451 84C293.803 84.0336 298.451 116.633 298.451 116.633H316.847" fill="url(#paint27_linear)"/>
<path d="M195.784 116.633H214.451C214.451 116.633 219.117 83.9664 256.451 84C293.803 84.0336 298.451 116.633 298.451 116.633H316.847" stroke="white" stroke-linecap="round"/>
<path d="M331.561 122.927C331.561 126.436 329.622 129.91 325.855 133.151C322.088 136.393 316.567 139.338 309.607 141.819C302.647 144.3 294.384 146.268 285.29 147.611C276.196 148.954 266.449 149.645 256.606 149.645C246.763 149.645 237.016 148.954 227.922 147.611C218.828 146.268 210.566 144.3 203.605 141.819C196.645 139.338 191.124 136.393 187.357 133.151C183.59 129.91 181.652 126.436 181.652 122.927C181.652 119.418 183.59 115.944 187.357 112.702C191.124 109.461 196.645 106.515 203.605 104.034C210.566 101.554 218.828 99.5855 227.922 98.2428C237.016 96.9001 246.763 96.209 256.606 96.209C266.449 96.209 276.196 96.9001 285.29 98.2428C294.384 99.5855 302.647 101.554 309.607 104.034C316.567 106.515 322.088 109.461 325.855 112.702C329.622 115.944 331.561 119.418 331.561 122.927Z" stroke="url(#paint28_radial)" stroke-width="1.6155" stroke-linecap="round"/>
<path opacity="0.26275" d="M251.821 112.974H252.232L252.4 113.665L252.839 112.974H253.268L253.016 114.281H252.689L252.876 113.32L252.428 114.029H252.251L252.064 113.32L251.887 114.281H251.56L251.821 112.974V112.974ZM253.548 113.301H253.865L253.669 114.281H253.361L253.548 113.301V113.301ZM253.623 112.918H253.94L253.884 113.18H253.576L253.623 112.918V112.918ZM254.957 113.329L254.901 113.581C254.864 113.562 254.827 113.534 254.78 113.525C254.743 113.506 254.705 113.497 254.659 113.497C254.565 113.497 254.481 113.534 254.416 113.6C254.351 113.674 254.313 113.758 254.313 113.861C254.313 113.936 254.332 113.982 254.379 114.02C254.416 114.057 254.472 114.076 254.547 114.076C254.593 114.076 254.64 114.076 254.687 114.057C254.733 114.038 254.78 114.02 254.827 113.992L254.78 114.244C254.724 114.262 254.677 114.281 254.621 114.29C254.565 114.3 254.519 114.3 254.463 114.3C254.313 114.3 254.192 114.272 254.108 114.197C254.024 114.132 253.987 114.029 253.987 113.908C253.987 113.824 253.996 113.749 254.033 113.674C254.061 113.6 254.108 113.534 254.164 113.469C254.229 113.404 254.295 113.357 254.379 113.329C254.463 113.292 254.556 113.273 254.659 113.273C254.715 113.273 254.761 113.282 254.808 113.292C254.855 113.301 254.911 113.31 254.957 113.329V113.329ZM255.9 113.562C255.872 113.553 255.853 113.544 255.825 113.534C255.797 113.534 255.769 113.525 255.741 113.525C255.657 113.525 255.592 113.553 255.545 113.609C255.489 113.656 255.452 113.73 255.433 113.824L255.349 114.281H255.032L255.219 113.301H255.536L255.499 113.469C255.545 113.404 255.592 113.357 255.657 113.329C255.723 113.292 255.788 113.273 255.863 113.273C255.872 113.273 255.891 113.282 255.9 113.282H255.947L255.9 113.562V113.562ZM256.525 113.497C256.451 113.497 256.385 113.534 256.329 113.609C256.273 113.684 256.255 113.777 256.255 113.889C256.255 113.954 256.264 114.001 256.292 114.029C256.32 114.066 256.367 114.076 256.413 114.076C256.497 114.076 256.563 114.038 256.619 113.973C256.665 113.898 256.693 113.805 256.693 113.684C256.693 113.628 256.684 113.581 256.656 113.544C256.628 113.516 256.581 113.497 256.525 113.497ZM256.553 113.273C256.703 113.273 256.815 113.31 256.899 113.385C256.983 113.46 257.02 113.562 257.02 113.693C257.02 113.768 257.011 113.833 256.983 113.908C256.955 113.973 256.917 114.038 256.871 114.094C256.805 114.16 256.74 114.216 256.656 114.253C256.581 114.281 256.488 114.3 256.385 114.3C256.245 114.3 256.133 114.262 256.049 114.188C255.965 114.113 255.928 114.02 255.928 113.889C255.928 113.814 255.937 113.749 255.965 113.674C255.993 113.609 256.031 113.544 256.077 113.478C256.133 113.413 256.208 113.366 256.283 113.329C256.367 113.292 256.46 113.273 256.553 113.273V113.273ZM258.084 113.329L258.037 113.572C257.981 113.544 257.916 113.525 257.86 113.506C257.795 113.488 257.739 113.488 257.683 113.488C257.627 113.488 257.58 113.497 257.543 113.506C257.515 113.525 257.496 113.544 257.496 113.581C257.496 113.59 257.505 113.609 257.524 113.618C257.543 113.628 257.58 113.637 257.636 113.656L257.692 113.665C257.813 113.693 257.907 113.721 257.953 113.768C258 113.805 258.028 113.87 258.028 113.945C258.028 114.057 257.981 114.141 257.897 114.206C257.804 114.272 257.683 114.3 257.524 114.3C257.459 114.3 257.384 114.3 257.319 114.29C257.244 114.272 257.179 114.262 257.104 114.244L257.151 113.992C257.207 114.029 257.272 114.057 257.328 114.066C257.393 114.085 257.459 114.094 257.533 114.094C257.599 114.094 257.645 114.085 257.673 114.076C257.711 114.057 257.729 114.029 257.729 114.001C257.729 113.982 257.72 113.964 257.701 113.954C257.683 113.945 257.645 113.926 257.58 113.917L257.524 113.908C257.412 113.88 257.337 113.852 257.291 113.805C257.244 113.758 257.216 113.693 257.216 113.618C257.216 113.506 257.263 113.422 257.337 113.366C257.421 113.31 257.543 113.273 257.692 113.273C257.757 113.273 257.823 113.282 257.888 113.292C257.953 113.301 258.019 113.31 258.084 113.329V113.329ZM258.271 113.898L258.383 113.301H258.7L258.597 113.805C258.597 113.842 258.588 113.87 258.588 113.889C258.579 113.917 258.579 113.936 258.579 113.945C258.579 113.982 258.588 114.01 258.607 114.029C258.625 114.057 258.663 114.066 258.7 114.066C258.765 114.066 258.812 114.038 258.859 113.992C258.905 113.936 258.943 113.87 258.961 113.777L259.055 113.301H259.363L259.176 114.281H258.859L258.887 114.132C258.84 114.188 258.784 114.234 258.719 114.262C258.663 114.29 258.597 114.3 258.541 114.3C258.448 114.3 258.383 114.281 258.327 114.234C258.28 114.188 258.261 114.122 258.261 114.029V113.964C258.261 113.945 258.271 113.917 258.271 113.898V113.898ZM260.455 113.329L260.408 113.581C260.371 113.562 260.324 113.534 260.287 113.525C260.249 113.506 260.203 113.497 260.165 113.497C260.063 113.497 259.979 113.534 259.913 113.6C259.857 113.674 259.82 113.758 259.82 113.861C259.82 113.936 259.839 113.982 259.885 114.02C259.923 114.057 259.979 114.076 260.053 114.076C260.1 114.076 260.147 114.076 260.193 114.057C260.24 114.038 260.287 114.02 260.324 113.992L260.277 114.244C260.231 114.262 260.175 114.281 260.128 114.29C260.072 114.3 260.016 114.3 259.969 114.3C259.811 114.3 259.699 114.272 259.615 114.197C259.531 114.132 259.484 114.029 259.484 113.908C259.484 113.824 259.503 113.749 259.531 113.674C259.568 113.6 259.605 113.534 259.661 113.469C259.727 113.404 259.801 113.357 259.885 113.329C259.969 113.292 260.063 113.273 260.165 113.273C260.212 113.273 260.268 113.282 260.315 113.292C260.361 113.301 260.408 113.31 260.455 113.329V113.329ZM260.8 112.918H261.117L260.968 113.656L261.388 113.301H261.761L261.192 113.749L261.603 114.281H261.248L260.931 113.852L260.847 114.281H260.539L260.8 112.918ZM262.667 113.329L262.62 113.572C262.564 113.544 262.499 113.525 262.443 113.506C262.377 113.488 262.321 113.488 262.275 113.488C262.209 113.488 262.163 113.497 262.125 113.506C262.097 113.525 262.079 113.544 262.079 113.581C262.079 113.59 262.088 113.609 262.107 113.618C262.125 113.628 262.163 113.637 262.219 113.656L262.275 113.665C262.396 113.693 262.489 113.721 262.536 113.768C262.592 113.805 262.611 113.87 262.611 113.945C262.611 114.057 262.564 114.141 262.48 114.206C262.387 114.272 262.265 114.3 262.107 114.3C262.041 114.3 261.967 114.3 261.901 114.29C261.836 114.272 261.761 114.262 261.687 114.244L261.733 113.992C261.789 114.029 261.855 114.057 261.92 114.066C261.976 114.085 262.041 114.094 262.116 114.094C262.181 114.094 262.228 114.085 262.265 114.076C262.293 114.057 262.312 114.029 262.312 114.001C262.312 113.982 262.303 113.964 262.284 113.954C262.265 113.945 262.228 113.926 262.172 113.917L262.116 113.908C262.004 113.88 261.92 113.852 261.873 113.805C261.827 113.758 261.799 113.693 261.799 113.618C261.799 113.506 261.845 113.422 261.92 113.366C262.004 113.31 262.125 113.273 262.275 113.273C262.34 113.273 262.405 113.282 262.471 113.292C262.536 113.301 262.601 113.31 262.667 113.329" fill="black"/>
<defs>
<radialGradient id="paint0_radial" cx="0" cy="0" r="1" gradientUnits="userSpaceOnUse" gradientTransform="translate(256.463 389.073) scale(179.48 62.5572)">
<stop/>
<stop offset="1" stop-opacity="0"/>
</radialGradient>
<linearGradient id="paint1_linear" x1="458.34" y1="180.66" x2="89.6006" y2="180.66" gradientUnits="userSpaceOnUse">
<stop stop-color="#555753"/>
<stop offset="0.61818" stop-color="#D5D9D2"/>
<stop offset="1" stop-color="#888A85"/>
</linearGradient>
<linearGradient id="paint2_linear" x1="208.58" y1="380.3" x2="426.961" y2="380.3" gradientUnits="userSpaceOnUse">
<stop stop-color="white"/>
<stop offset="1" stop-color="white" stop-opacity="0"/>
</linearGradient>
<linearGradient id="paint3_linear" x1="230.753" y1="267.133" x2="268.716" y2="267.133" gradientUnits="userSpaceOnUse">
<stop/>
<stop offset="1" stop-color="white"/>
</linearGradient>
<linearGradient id="paint4_linear" x1="284.43" y1="258.388" x2="330.986" y2="259.461" gradientUnits="userSpaceOnUse">
<stop/>
<stop offset="1" stop-color="white"/>
</linearGradient>
<linearGradient id="paint5_linear" x1="331.106" y1="251.966" x2="387.526" y2="251.966" gradientUnits="userSpaceOnUse">
<stop/>
<stop offset="1" stop-color="white"/>
</linearGradient>
<linearGradient id="paint6_linear" x1="106.919" y1="255.018" x2="175.352" y2="256.14" gradientUnits="userSpaceOnUse">
<stop/>
<stop offset="1" stop-color="white"/>
</linearGradient>
<linearGradient id="paint7_linear" x1="132.669" y1="262.42" x2="219.007" y2="261.713" gradientUnits="userSpaceOnUse">
<stop/>
<stop offset="1" stop-color="white"/>
</linearGradient>
<linearGradient id="paint8_linear" x1="273.499" y1="396.633" x2="242.191" y2="389.132" gradientUnits="userSpaceOnUse">
<stop stop-color="white"/>
<stop offset="1" stop-color="white" stop-opacity="0"/>
</linearGradient>
<linearGradient id="paint9_linear" x1="334.869" y1="398.57" x2="303.145" y2="368.386" gradientUnits="userSpaceOnUse">
<stop stop-color="white"/>
<stop offset="1" stop-color="white" stop-opacity="0"/>
</linearGradient>
<linearGradient id="paint10_linear" x1="228.518" y1="384.388" x2="196.953" y2="372.936" gradientUnits="userSpaceOnUse">
<stop stop-color="white"/>
<stop offset="1" stop-color="white" stop-opacity="0"/>
</linearGradient>
<linearGradient id="paint11_linear" x1="373.696" y1="394.393" x2="373.696" y2="320.548" gradientUnits="userSpaceOnUse">
<stop stop-color="white"/>
<stop offset="1" stop-color="white" stop-opacity="0"/>
</linearGradient>
<linearGradient id="paint12_linear" x1="139.784" y1="369.212" x2="139.784" y2="293.238" gradientUnits="userSpaceOnUse">
<stop stop-color="white"/>
<stop offset="1" stop-color="white" stop-opacity="0"/>
</linearGradient>
<linearGradient id="paint13_linear" x1="190.468" y1="367.095" x2="162.831" y2="364.369" gradientUnits="userSpaceOnUse">
<stop stop-color="white"/>
<stop offset="1" stop-color="white" stop-opacity="0"/>
</linearGradient>
<linearGradient id="paint14_linear" x1="365.285" y1="389.236" x2="336.937" y2="371.801" gradientUnits="userSpaceOnUse">
<stop stop-color="white"/>
<stop offset="1" stop-color="white" stop-opacity="0"/>
</linearGradient>
<radialGradient id="paint15_radial" cx="0" cy="0" r="1" gradientUnits="userSpaceOnUse" gradientTransform="translate(256.451 198.294) scale(130.667 39.6743)">
<stop/>
<stop offset="1" stop-opacity="0"/>
</radialGradient>
<linearGradient id="paint16_linear" x1="436.584" y1="123.036" x2="81.4861" y2="123.036" gradientUnits="userSpaceOnUse">
<stop stop-color="#6D6F6A"/>
<stop offset="0.61818" stop-color="#E7E8E5"/>
<stop offset="1" stop-color="#999B96"/>
</linearGradient>
<linearGradient id="paint17_linear" x1="303.117" y1="86.2998" x2="209.784" y2="86.2998" gradientUnits="userSpaceOnUse">
<stop stop-color="#95998E"/>
<stop offset="0.59524" stop-color="white"/>
<stop offset="1" stop-color="#DFDFDB"/>
</linearGradient>
<linearGradient id="paint18_linear" x1="283.231" y1="107.151" x2="198.025" y2="201.812" gradientUnits="userSpaceOnUse">
<stop stop-color="#BABDB6"/>
<stop offset="1" stop-color="white"/>
</linearGradient>
<radialGradient id="paint19_radial" cx="0" cy="0" r="1" gradientUnits="userSpaceOnUse" gradientTransform="translate(256.455 111.967) scale(78.1287 26.043)">
<stop/>
<stop offset="1" stop-opacity="0"/>
</radialGradient>
<linearGradient id="paint20_linear" x1="202.756" y1="166.8" x2="464.845" y2="166.8" gradientUnits="userSpaceOnUse">
<stop stop-color="white"/>
<stop offset="1" stop-color="white" stop-opacity="0"/>
</linearGradient>
<radialGradient id="paint21_radial" cx="0" cy="0" r="1" gradientUnits="userSpaceOnUse" gradientTransform="translate(216.042 175.884) rotate(-10.7514) scale(173.087 39.77)">
<stop stop-color="white"/>
<stop offset="1" stop-color="white" stop-opacity="0"/>
</radialGradient>
<radialGradient id="paint22_radial" cx="0" cy="0" r="1" gradientUnits="userSpaceOnUse" gradientTransform="translate(307.788 111.966) scale(23.3333 13.9999)">
<stop/>
<stop offset="1" stop-opacity="0"/>
</radialGradient>
<radialGradient id="paint23_radial" cx="0" cy="0" r="1" gradientUnits="userSpaceOnUse" gradientTransform="translate(205.117 111.966) scale(23.3333 13.9999)">
<stop/>
<stop offset="1" stop-opacity="0"/>
</radialGradient>
<linearGradient id="paint24_linear" x1="306.905" y1="98.5494" x2="304.434" y2="109.223" gradientUnits="userSpaceOnUse">
<stop stop-color="#888A85"/>
<stop offset="1" stop-color="#D3D7CF"/>
</linearGradient>
<linearGradient id="paint25_linear" x1="204.533" y1="90.0618" x2="208.777" y2="105.89" gradientUnits="userSpaceOnUse">
<stop stop-color="#D3D7CF"/>
<stop offset="1" stop-color="#EEEEEC"/>
</linearGradient>
<linearGradient id="paint26_linear" x1="303.117" y1="86.2998" x2="209.784" y2="86.2998" gradientUnits="userSpaceOnUse">
<stop stop-color="#95998E"/>
<stop offset="0.59524" stop-color="white"/>
<stop offset="1" stop-color="#DFDFDB"/>
</linearGradient>
<linearGradient id="paint27_linear" x1="258.784" y1="90.889" x2="258.784" y2="116.073" gradientUnits="userSpaceOnUse">
<stop stop-opacity="0.32317"/>
<stop offset="1" stop-opacity="0"/>
</linearGradient>
<radialGradient id="paint28_radial" cx="0" cy="0" r="1" gradientUnits="userSpaceOnUse" gradientTransform="translate(195.667 145.226) rotate(-1.4491) scale(129.702 22.0025)">
<stop stop-color="white"/>
<stop offset="1" stop-color="white" stop-opacity="0"/>
</radialGradient>
</defs>
</svg>
