<svg width="182" height="185" viewBox="0 0 182 185" fill="none" xmlns="http://www.w3.org/2000/svg">
<g filter="url(#filter0_d)">
<path d="M80.8194 11.9722L6.89609 159.847C3.12812 167.412 8.61656 176.312 17.0767 176.312H164.923C173.383 176.312 178.886 167.412 175.104 159.847L101.181 11.9722C96.9861 3.59734 85.0139 3.59734 80.8194 11.9722V11.9722Z" fill="url(#paint0_linear)"/>
<g opacity="0.2">
<path opacity="0.2" d="M91 9.95312C93.7442 9.95312 96.133 11.4177 97.3558 13.8775L171.279 161.753C172.402 163.999 172.289 166.53 170.966 168.663C169.644 170.81 167.44 172.033 164.923 172.033H17.0767C14.56 172.033 12.3561 170.81 11.0337 168.663C9.7114 166.516 9.59765 163.999 10.7209 161.753L84.6442 13.8775C85.867 11.4177 88.2558 9.95312 91 9.95312V9.95312ZM91 5.6875C86.9619 5.6875 82.9237 7.77766 80.8194 11.9722L6.89609 159.847C3.12812 167.412 8.61656 176.312 17.0767 176.312H164.923C173.383 176.312 178.886 167.412 175.104 159.847L101.181 11.9722C99.0762 7.77766 95.0381 5.6875 91 5.6875V5.6875Z" fill="#424242"/>
</g>
<g opacity="0.2">
<path opacity="0.2" d="M91 48.3438C97.5833 48.3438 102.787 53.5478 102.347 59.6903L97.4837 127.983C97.2562 131.168 94.4267 133.656 91 133.656C87.5733 133.656 84.7438 131.168 84.5163 127.983L79.6534 59.6903C79.2127 53.5478 84.4167 48.3438 91 48.3438ZM91 44.0781C86.5353 44.0781 82.2697 45.8981 79.298 49.0831C76.4969 52.0975 75.1034 55.965 75.3878 59.9889L80.2506 128.282C80.6488 133.685 85.3694 137.922 91 137.922C96.6306 137.922 101.351 133.685 101.735 128.282L106.598 59.9889C106.882 55.965 105.503 52.0975 102.688 49.0831C99.7303 45.8981 95.4647 44.0781 91 44.0781V44.0781Z" fill="#424242"/>
<path opacity="0.2" d="M91 139.344C95.7064 139.344 99.5312 143.169 99.5312 147.875C99.5312 152.581 95.7064 156.406 91 156.406C86.2936 156.406 82.4688 152.581 82.4688 147.875C82.4688 143.169 86.2936 139.344 91 139.344ZM91 135.078C83.9475 135.078 78.2031 140.822 78.2031 147.875C78.2031 154.928 83.9475 160.672 91 160.672C98.0525 160.672 103.797 154.928 103.797 147.875C103.797 140.822 98.0525 135.078 91 135.078Z" fill="#424242"/>
</g>
<path d="M91 48.3438C97.5833 48.3438 102.787 53.5478 102.347 59.6903L97.4838 127.983C97.2563 131.168 94.4267 133.656 91 133.656C87.5733 133.656 84.7438 131.168 84.5163 127.983L79.6535 59.6903C79.2127 53.5478 84.4167 48.3438 91 48.3438Z" fill="url(#paint1_linear)"/>
<path d="M91 156.406C95.7117 156.406 99.5312 152.587 99.5312 147.875C99.5312 143.163 95.7117 139.344 91 139.344C86.2883 139.344 82.4688 143.163 82.4688 147.875C82.4688 152.587 86.2883 156.406 91 156.406Z" fill="url(#paint2_linear)"/>
</g>
<defs>
<filter id="filter0_d" x="-4" y="0" width="190" height="190" filterUnits="userSpaceOnUse" color-interpolation-filters="sRGB">
<feFlood flood-opacity="0" result="BackgroundImageFix"/>
<feColorMatrix in="SourceAlpha" type="matrix" values="0 0 0 0 0 0 0 0 0 0 0 0 0 0 0 0 0 0 127 0"/>
<feOffset dy="4"/>
<feGaussianBlur stdDeviation="2"/>
<feColorMatrix type="matrix" values="0 0 0 0 0 0 0 0 0 0 0 0 0 0 0 0 0 0 0.25 0"/>
<feBlend mode="normal" in2="BackgroundImageFix" result="effect1_dropShadow"/>
<feBlend mode="normal" in="SourceGraphic" in2="effect1_dropShadow" result="shape"/>
</filter>
<linearGradient id="paint0_linear" x1="91" y1="52.6094" x2="91" y2="186.038" gradientUnits="userSpaceOnUse">
<stop stop-color="#FFEB3B"/>
<stop offset="0.419" stop-color="#FFDC28"/>
<stop offset="0.9954" stop-color="#FFC107"/>
</linearGradient>
<linearGradient id="paint1_linear" x1="91" y1="45.8555" x2="91" y2="157.743" gradientUnits="userSpaceOnUse">
<stop stop-color="#424242"/>
<stop offset="1" stop-color="#212121"/>
</linearGradient>
<linearGradient id="paint2_linear" x1="91" y1="45.8555" x2="91" y2="157.743" gradientUnits="userSpaceOnUse">
<stop stop-color="#424242"/>
<stop offset="1" stop-color="#212121"/>
</linearGradient>
</defs>
</svg>
