<svg viewBox="0 0 57 62" fill="none" xmlns="http://www.w3.org/2000/svg">
<path opacity="0.8" d="M57 48.3824C57 50.8782 54.1554 53.2719 49.0919 55.0367C44.0284 56.8015 37.1608 57.793 30 57.793C22.8392 57.793 15.9716 56.8015 10.9081 55.0367C5.84463 53.2719 3 50.8782 3 48.3824C3 45.8865 5.84463 43.4929 10.9081 41.7281C15.9716 39.9633 22.8392 38.9718 30 38.9718C37.1608 38.9718 44.0284 39.9633 49.0919 41.7281C54.1554 43.4929 57 45.8865 57 48.3824V48.3824Z" fill="url(#paint0_radial)"/>
<path d="M28.0065 4.97843C19.035 5.28912 10.746 7.97247 10.746 11.6171V47.4659C10.746 51.1385 19.2979 54.1046 29.957 54.1046C40.616 54.1046 49.2503 51.1385 49.2503 47.4659V11.6171C49.2503 7.94512 40.616 4.97843 29.957 4.97843C29.4564 4.97843 28.9532 4.96555 28.4633 4.97843C28.3066 4.98254 28.1605 4.97312 28.0065 4.97843Z" fill="url(#paint1_linear)" stroke="#555753" stroke-width="1.0292" stroke-linecap="round"/>
<path opacity="0.7098" d="M28.5881 6.30617C19.8503 6.51648 12.8717 8.88728 12.0976 11.6384C12.0764 11.722 12.0737 47.3797 12.0737 47.466C12.0737 50.1214 20.5858 52.7769 29.957 52.7769C39.6375 52.7769 47.9226 50.1214 47.9226 47.466C47.9226 47.4049 47.9292 11.8442 47.9226 11.7831C47.5575 8.75186 39.6375 6.30617 29.957 6.30617C29.4923 6.30617 29.0435 6.29515 28.5881 6.30617V6.30617Z" stroke="url(#paint2_linear)" stroke-linecap="round"/>
<path opacity="0.3" d="M32.6536 22.9029C32.6536 21.4363 31.4647 20.2474 29.9981 20.2474C28.5315 20.2474 27.3427 21.4363 27.3427 22.9029V46.8021C27.3427 48.2687 28.5315 49.4576 29.9981 49.4576C31.4647 49.4576 32.6536 48.2687 32.6536 46.8021V22.9029Z" fill="url(#paint3_linear)"/>
<path opacity="0.3" d="M39.2923 22.239C39.2923 20.7724 38.1034 19.5835 36.6368 19.5835C35.1702 19.5835 33.9813 20.7724 33.9813 22.239V46.1382C33.9813 47.6048 35.1702 48.7937 36.6368 48.7937C38.1034 48.7937 39.2923 47.6048 39.2923 46.1382V22.239Z" fill="url(#paint4_linear)"/>
<path opacity="0.3" d="M44.6033 20.2474C44.6033 19.1475 43.7117 18.2558 42.6117 18.2558C41.5118 18.2558 40.6201 19.1475 40.6201 20.2474V45.4744C40.6201 46.5743 41.5118 47.466 42.6117 47.466C43.7117 47.466 44.6033 46.5743 44.6033 45.4744V20.2474Z" fill="url(#paint5_linear)"/>
<path opacity="0.3" d="M47.2588 18.2558C47.2588 16.7892 46.9615 15.6003 46.5949 15.6003C46.2283 15.6003 45.931 16.7892 45.931 18.2558V42.155C45.931 43.6216 46.2283 44.8105 46.5949 44.8105C46.9615 44.8105 47.2588 43.6216 47.2588 42.155V18.2558Z" fill="black"/>
<path opacity="0.3" d="M14.0654 18.9197C14.0654 17.4531 13.7682 16.2642 13.4015 16.2642C13.0349 16.2642 12.7377 17.4531 12.7377 18.9197V42.8189C12.7377 44.2855 13.0349 45.4744 13.4015 45.4744C13.7682 45.4744 14.0654 44.2855 14.0654 42.8189V18.9197Z" fill="white"/>
<path opacity="0.5" d="M19.3763 20.2474C19.3763 19.1475 18.4846 18.2558 17.3847 18.2558C16.2847 18.2558 15.3931 19.1475 15.3931 20.2474V45.4744C15.3931 46.5743 16.2847 47.466 17.3847 47.466C18.4846 47.466 19.3763 46.5743 19.3763 45.4744V20.2474Z" fill="url(#paint6_linear)"/>
<path opacity="0.5" d="M26.015 22.239C26.015 20.7724 24.8261 19.5835 23.3596 19.5835C21.893 19.5835 20.7041 20.7724 20.7041 22.239V46.1382C20.7041 47.6048 21.893 48.7937 23.3596 48.7937C24.8261 48.7937 26.015 47.6048 26.015 46.1382V22.239Z" fill="url(#paint7_linear)"/>
<path d="M29.9854 20.882H29.9853C28.8624 20.882 27.9521 21.7923 27.9521 22.9152V46.7618C27.9521 47.8847 28.8624 48.795 29.9853 48.795H29.9854C31.1083 48.795 32.0186 47.8847 32.0186 46.7618V22.9152C32.0186 21.7923 31.1083 20.882 29.9854 20.882Z" stroke="url(#paint8_linear)" stroke-linecap="round"/>
<path opacity="0.49412" d="M38.6363 22.228C38.6363 21.1341 37.7429 20.2474 36.6408 20.2474C35.5387 20.2474 34.6453 21.1341 34.6453 22.228V46.1506C34.6453 47.2444 35.5387 48.1312 36.6408 48.1312C37.7429 48.1312 38.6363 47.2444 38.6363 46.1506V22.228Z" stroke="url(#paint9_linear)" stroke-linecap="round"/>
<path d="M25.3609 22.2573C25.3609 21.1311 24.4671 20.2182 23.3645 20.2182C22.2619 20.2182 21.368 21.1311 21.368 22.2573V46.0907C21.368 47.2168 22.2619 48.1298 23.3645 48.1298C24.4671 48.1298 25.3609 47.2168 25.3609 46.0907V22.2573Z" stroke="url(#paint10_linear)" stroke-linecap="round"/>
<path opacity="0.4" d="M47.2588 18.2558C47.2588 16.7892 46.9615 15.6003 46.5949 15.6003C46.2283 15.6003 45.931 16.7892 45.931 18.2558V42.155C45.931 43.6216 46.2283 44.8105 46.5949 44.8105C46.9615 44.8105 47.2588 43.6216 47.2588 42.155V18.2558Z" fill="url(#paint11_linear)"/>
<path opacity="0.3" d="M14.0654 18.9197C14.0654 17.4531 13.7682 16.2642 13.4015 16.2642C13.0349 16.2642 12.7377 17.4531 12.7377 18.9197V42.8189C12.7377 44.2855 13.0349 45.4744 13.4015 45.4744C13.7682 45.4744 14.0654 44.2855 14.0654 42.8189V18.9197Z" fill="url(#paint12_linear)"/>
<path d="M18.8238 20.9588C18.8238 19.8326 18.2044 18.9196 17.4403 18.9196C16.6763 18.9196 16.0569 19.8326 16.0569 20.9588V44.7922C16.0569 45.9183 16.6763 46.8313 17.4403 46.8313C18.2044 46.8313 18.8238 45.9183 18.8238 44.7922V20.9588Z" stroke="url(#paint13_linear)" stroke-linecap="round"/>
<path opacity="0.49412" d="M42.5632 18.9196H42.5631C41.8507 18.9196 41.2732 19.4972 41.2732 20.2096V45.5135C41.2732 46.2259 41.8507 46.8034 42.5631 46.8034H42.5632C43.2756 46.8034 43.8531 46.2259 43.8531 45.5135V20.2096C43.8531 19.4972 43.2756 18.9196 42.5632 18.9196Z" stroke="url(#paint14_linear)" stroke-linecap="round"/>
<path opacity="0.55294" d="M28.9201 15.6003C21.3746 15.7025 14.8647 16.871 11.4099 18.5306V23.9557C15.0306 25.6951 21.992 26.8861 29.9982 26.8861C38.0044 26.8861 44.9658 25.6951 48.5865 23.9557V18.5306C44.9658 16.7913 38.0044 15.6003 29.9982 15.6003C29.6317 15.6003 29.2812 15.595 28.9201 15.6003Z" fill="url(#paint15_radial)"/>
<path d="M27.899 3.66278C17.5241 4.07092 9.41565 7.4755 9.41565 11.5985V15.587C9.41565 19.9832 18.6129 23.5627 29.9756 23.5627C41.3384 23.5627 50.5781 19.9832 50.5781 15.587V11.5985C50.5781 7.20066 41.3384 3.66278 29.9756 3.66278C29.2653 3.66278 28.5908 3.63556 27.899 3.66278V3.66278Z" fill="url(#paint16_linear)" stroke="#555753" stroke-linecap="round"/>
<path d="M24.0234 6.97002L23.3595 9.62549H24.6872C24.6872 7.63388 27.7424 4.31933 29.9982 4.31933C32.254 4.31933 35.3091 7.63388 35.3091 9.62549H36.6368L35.973 6.97002C35.6132 4.53907 33.9814 0.99521 29.9982 0.99999C26.015 1.00477 24.3659 4.65312 24.0234 6.97002Z" fill="url(#paint17_linear)" stroke="#555753" stroke-width="2" stroke-linecap="round"/>
<path d="M49.9141 11.1877C49.9141 14.8522 40.9918 17.5917 29.9981 17.5917C19.0045 17.5917 10.0822 14.6176 10.0822 10.9531C10.0822 7.28855 19.0045 4.31444 29.9981 4.31444C40.9918 4.31444 49.9141 8.34188 49.9141 11.1877Z" fill="url(#paint18_linear)"/>
<path opacity="0.3" d="M41.1132 8.96166C41.1132 9.94423 39.9422 10.8866 37.8578 11.5813C35.7735 12.2761 32.9465 12.6664 29.9988 12.6664C27.0511 12.6664 24.2241 12.2761 22.1397 11.5813C20.0554 10.8866 18.8844 9.94423 18.8844 8.96166C18.8844 7.97909 20.0554 7.03677 22.1397 6.34199C24.2241 5.64721 27.0511 5.25688 29.9988 5.25688C32.9465 5.25688 35.7735 5.64721 37.8578 6.34199C39.9422 7.03677 41.1132 7.97909 41.1132 8.96166V8.96166Z" fill="url(#paint19_radial)"/>
<path opacity="0.56471" d="M28.0464 4.97843C18.3353 5.33347 10.746 8.29432 10.746 11.88V15.348C10.746 19.1732 19.355 22.2855 29.9902 22.2855C40.6253 22.2855 49.2729 19.1732 49.2729 15.348V11.88C49.2729 8.05532 40.6253 4.97843 29.9902 4.97843C29.325 4.97843 28.693 4.9548 28.0464 4.97843V4.97843Z" stroke="url(#paint20_linear)" stroke-linecap="round"/>
<path d="M49.293 10.5211C49.293 11.4233 48.7945 12.3167 47.8259 13.1502C46.8573 13.9837 45.4377 14.7411 43.648 15.3791C41.8582 16.017 39.7335 16.5231 37.3952 16.8683C35.0568 17.2136 32.5505 17.3913 30.0195 17.3913C27.4885 17.3913 24.9822 17.2136 22.6438 16.8683C20.3055 16.5231 18.1808 16.017 16.3911 15.3791C14.6013 14.7411 13.1817 13.9837 12.2131 13.1502C11.2445 12.3167 10.746 11.4233 10.746 10.5211C10.746 9.61885 11.2445 8.72548 12.2131 7.89194C13.1817 7.05841 14.6013 6.30104 16.3911 5.66308C18.1808 5.02512 20.3055 4.51906 22.6438 4.1738C24.9822 3.82854 27.4885 3.65083 30.0195 3.65083C32.5505 3.65083 35.0568 3.82854 37.3952 4.1738C39.7335 4.51906 41.8582 5.02512 43.648 5.66308C45.4377 6.30104 46.8573 7.05841 47.8259 7.89194C48.7945 8.72548 49.293 9.61885 49.293 10.5211Z" stroke="url(#paint21_radial)" stroke-width="0.89376" stroke-linecap="round"/>
<g opacity="0.55686">
<path d="M40.6206 8.9616C40.6206 9.4898 40.2709 9.99637 39.6484 10.3699C39.0259 10.7434 38.1816 10.9532 37.3013 10.9532C36.4209 10.9532 35.5766 10.7434 34.9541 10.3699C34.3316 9.99637 33.9819 9.4898 33.9819 8.9616C33.9819 8.43339 34.3316 7.92682 34.9541 7.55333C35.5766 7.17983 36.4209 6.97 37.3013 6.97C38.1816 6.97 39.0259 7.17983 39.6484 7.55333C40.2709 7.92682 40.6206 8.43339 40.6206 8.9616V8.9616Z" fill="url(#paint22_radial)"/>
<path d="M26.0148 8.9616C26.0148 9.4898 25.6651 9.99637 25.0426 10.3699C24.4201 10.7434 23.5758 10.9532 22.6954 10.9532C21.8151 10.9532 20.9708 10.7434 20.3483 10.3699C19.7258 9.99637 19.3761 9.4898 19.3761 8.9616C19.3761 8.43339 19.7258 7.92682 20.3483 7.55333C20.9708 7.17983 21.8151 6.97 22.6954 6.97C23.5758 6.97 24.4201 7.17983 25.0426 7.55333C25.6651 7.92682 26.0148 8.43339 26.0148 8.9616V8.9616Z" fill="url(#paint23_radial)"/>
</g>
<path d="M37.9687 6.97H35.7027C35.3962 6.97 35.2195 7.19105 35.308 7.46373L35.8228 9.04961C35.9113 9.32228 36.2315 9.54333 36.5381 9.54333H38.804C39.1106 9.54333 39.2873 9.32228 39.1988 9.04961L38.684 7.46373C38.5955 7.19105 38.2752 6.97 37.9687 6.97Z" fill="url(#paint24_linear)"/>
<path d="M21.1918 9.5433H23.4569C23.765 9.5433 24.0833 9.32357 24.1722 9.04953L24.687 7.46362C24.7758 7.19021 24.6003 6.96997 24.2923 6.96997H22.0272C21.7191 6.96997 21.4007 7.19021 21.3119 7.46362L20.7971 9.04953C20.7082 9.32357 20.8838 9.5433 21.1918 9.5433Z" fill="url(#paint25_linear)"/>
<path d="M24.0234 6.97002L23.3595 9.62549H24.6872C24.6872 7.63388 27.7424 4.31933 29.9982 4.31933C32.254 4.31933 35.3091 7.63388 35.3091 9.62549H36.6368L35.973 6.97002C35.6132 4.53907 33.9814 0.99521 29.9982 0.99999C26.015 1.00477 24.3659 4.65312 24.0234 6.97002Z" fill="url(#paint26_linear)"/>
<path d="M21.368 9.62548H24.0235C24.0235 9.62548 24.6874 4.97841 29.9983 4.98319C35.3119 4.98797 35.9731 9.62548 35.9731 9.62548H38.5901" fill="url(#paint27_linear)"/>
<path d="M21.368 9.62548H24.0235C24.0235 9.62548 24.6874 4.97841 29.9983 4.98319C35.3119 4.98797 35.9731 9.62548 35.9731 9.62548H38.5901" stroke="white" stroke-linecap="round"/>
<path d="M40.6832 10.5208C40.6832 11.02 40.4074 11.5142 39.8716 11.9753C39.3357 12.4365 38.5503 12.8555 37.5602 13.2084C36.57 13.5614 35.3946 13.8413 34.1009 14.0323C32.8072 14.2233 31.4207 14.3217 30.0204 14.3217C28.6201 14.3217 27.2336 14.2233 25.9399 14.0323C24.6462 13.8413 23.4708 13.5614 22.4806 13.2084C21.4905 12.8555 20.7051 12.4365 20.1692 11.9753C19.6333 11.5142 19.3575 11.02 19.3575 10.5208C19.3575 10.0217 19.6333 9.52745 20.1692 9.06631C20.7051 8.60518 21.4905 8.18618 22.4806 7.83324C23.4708 7.4803 24.6462 7.20033 25.9399 7.00932C27.2336 6.81831 28.6201 6.72 30.0204 6.72C31.4207 6.72 32.8072 6.81831 34.1009 7.00932C35.3946 7.20033 36.57 7.4803 37.5602 7.83324C38.5503 8.18618 39.3357 8.60518 39.8716 9.06631C40.4074 9.52745 40.6832 10.0217 40.6832 10.5208Z" stroke="url(#paint28_radial)" stroke-width="1.6155" stroke-linecap="round"/>
<path opacity="0.26275" d="M29.3397 9.10501H29.3981L29.422 9.20326L29.4844 9.10501H29.5455L29.5096 9.29089H29.4631L29.4897 9.15414L29.426 9.25505H29.4007L29.3742 9.15414L29.349 9.29089H29.3025L29.3397 9.10501V9.10501ZM29.5853 9.15148H29.6304L29.6026 9.29089H29.5587L29.5853 9.15148V9.15148ZM29.5959 9.09705H29.6411L29.6331 9.13422H29.5893L29.5959 9.09705V9.09705ZM29.7858 9.15547L29.7778 9.19132C29.7725 9.18866 29.7672 9.18468 29.7606 9.18335C29.7552 9.18069 29.7499 9.17936 29.7433 9.17936C29.73 9.17936 29.7181 9.18468 29.7088 9.19397C29.6995 9.20459 29.6942 9.21654 29.6942 9.23115C29.6942 9.24177 29.6968 9.24841 29.7035 9.25372C29.7088 9.25903 29.7167 9.26168 29.7274 9.26168C29.734 9.26168 29.7406 9.26168 29.7473 9.25903C29.7539 9.25637 29.7606 9.25372 29.7672 9.24974L29.7606 9.28558C29.7526 9.28824 29.746 9.29089 29.738 9.29222C29.73 9.29355 29.7234 9.29355 29.7154 9.29355C29.6942 9.29355 29.6769 9.28957 29.665 9.27895C29.653 9.26965 29.6477 9.25505 29.6477 9.23779C29.6477 9.22584 29.649 9.21521 29.6543 9.20459C29.6583 9.19397 29.665 9.18468 29.6729 9.17538C29.6822 9.16609 29.6915 9.15945 29.7035 9.15547C29.7154 9.15015 29.7287 9.1475 29.7433 9.1475C29.7513 9.1475 29.7579 9.14883 29.7645 9.15016C29.7712 9.15148 29.7791 9.15281 29.7858 9.15547V9.15547ZM29.9199 9.18866C29.9159 9.18733 29.9132 9.186 29.9093 9.18468C29.9053 9.18468 29.9013 9.18335 29.8973 9.18335C29.8854 9.18335 29.8761 9.18733 29.8694 9.1953C29.8615 9.20194 29.8562 9.21256 29.8535 9.22584L29.8415 9.29089H29.7964L29.823 9.15148H29.8681L29.8628 9.17538C29.8694 9.16609 29.8761 9.15945 29.8854 9.15547C29.8947 9.15015 29.904 9.1475 29.9146 9.1475C29.9159 9.1475 29.9186 9.14883 29.9199 9.14883H29.9265L29.9199 9.18866V9.18866ZM30.0088 9.17936C29.9982 9.17936 29.9889 9.18468 29.981 9.1953C29.973 9.20592 29.9703 9.2192 29.9703 9.23513C29.9703 9.24442 29.9717 9.25106 29.9757 9.25505C29.9796 9.26036 29.9863 9.26168 29.9929 9.26168C30.0049 9.26168 30.0142 9.25637 30.0221 9.24708C30.0288 9.23646 30.0327 9.22318 30.0327 9.20592C30.0327 9.19795 30.0314 9.19131 30.0274 9.186C30.0234 9.18202 30.0168 9.17936 30.0088 9.17936ZM30.0128 9.1475C30.0341 9.1475 30.05 9.15281 30.062 9.16343C30.0739 9.17405 30.0792 9.18866 30.0792 9.20725C30.0792 9.21787 30.0779 9.22716 30.0739 9.23779C30.0699 9.24708 30.0646 9.25637 30.058 9.26434C30.0487 9.27363 30.0394 9.2816 30.0274 9.28691C30.0168 9.29089 30.0035 9.29355 29.9889 9.29355C29.969 9.29355 29.9531 9.28824 29.9411 9.27762C29.9292 9.267 29.9239 9.25372 29.9239 9.23513C29.9239 9.22451 29.9252 9.21521 29.9292 9.20459C29.9332 9.1953 29.9385 9.186 29.9451 9.17671C29.9531 9.16742 29.9637 9.16078 29.9743 9.15547C29.9863 9.15015 29.9995 9.1475 30.0128 9.1475V9.1475ZM30.2306 9.15547L30.2239 9.18999C30.216 9.186 30.2067 9.18335 30.1987 9.18069C30.1894 9.17804 30.1814 9.17804 30.1735 9.17804C30.1655 9.17804 30.1589 9.17937 30.1536 9.18069C30.1496 9.18335 30.1469 9.186 30.1469 9.19132C30.1469 9.19264 30.1483 9.1953 30.1509 9.19663C30.1536 9.19795 30.1589 9.19928 30.1668 9.20194L30.1748 9.20326C30.1921 9.20725 30.2053 9.21123 30.212 9.21787C30.2186 9.22318 30.2226 9.23247 30.2226 9.2431C30.2226 9.25903 30.216 9.27098 30.204 9.28027C30.1907 9.28957 30.1735 9.29355 30.1509 9.29355C30.1416 9.29355 30.131 9.29355 30.1217 9.29222C30.1111 9.28957 30.1018 9.28824 30.0912 9.28558L30.0978 9.24974C30.1058 9.25505 30.1151 9.25903 30.123 9.26036C30.1323 9.26301 30.1416 9.26434 30.1522 9.26434C30.1615 9.26434 30.1682 9.26301 30.1722 9.26168C30.1775 9.25903 30.1801 9.25505 30.1801 9.25106C30.1801 9.24841 30.1788 9.24575 30.1761 9.24442C30.1735 9.2431 30.1682 9.24044 30.1589 9.23911L30.1509 9.23779C30.135 9.2338 30.1244 9.22982 30.1177 9.22318C30.1111 9.21654 30.1071 9.20725 30.1071 9.19663C30.1071 9.18069 30.1137 9.16874 30.1244 9.16078C30.1363 9.15281 30.1536 9.1475 30.1748 9.1475C30.1841 9.1475 30.1934 9.14883 30.2027 9.15016C30.212 9.15148 30.2213 9.15281 30.2306 9.15547V9.15547ZM30.2571 9.23646L30.2731 9.15148H30.3182L30.3036 9.22318C30.3036 9.22849 30.3023 9.23247 30.3023 9.23513C30.3009 9.23911 30.3009 9.24177 30.3009 9.2431C30.3009 9.24841 30.3023 9.25239 30.3049 9.25505C30.3076 9.25903 30.3129 9.26036 30.3182 9.26036C30.3275 9.26036 30.3341 9.25637 30.3408 9.24974C30.3474 9.24177 30.3527 9.23247 30.3554 9.2192L30.3687 9.15148H30.4125L30.3859 9.29089H30.3408L30.3448 9.26965C30.3381 9.27762 30.3302 9.28426 30.3209 9.28824C30.3129 9.29222 30.3036 9.29355 30.2956 9.29355C30.2824 9.29355 30.2731 9.29089 30.2651 9.28426C30.2585 9.27762 30.2558 9.26832 30.2558 9.25505V9.24575C30.2558 9.2431 30.2571 9.23911 30.2571 9.23646V9.23646ZM30.5678 9.15547L30.5612 9.19132C30.5559 9.18866 30.5492 9.18468 30.5439 9.18335C30.5386 9.18069 30.532 9.17936 30.5267 9.17936C30.5121 9.17936 30.5001 9.18468 30.4908 9.19397C30.4828 9.20459 30.4775 9.21654 30.4775 9.23115C30.4775 9.24177 30.4802 9.24841 30.4868 9.25372C30.4921 9.25903 30.5001 9.26168 30.5107 9.26168C30.5174 9.26168 30.524 9.26168 30.5306 9.25903C30.5373 9.25637 30.5439 9.25372 30.5492 9.24974L30.5426 9.28558C30.536 9.28824 30.528 9.29089 30.5213 9.29222C30.5134 9.29355 30.5054 9.29355 30.4988 9.29355C30.4762 9.29355 30.4603 9.28957 30.4483 9.27895C30.4364 9.26965 30.4297 9.25505 30.4297 9.23779C30.4297 9.22584 30.4324 9.21521 30.4364 9.20459C30.4417 9.19397 30.447 9.18468 30.455 9.17538C30.4643 9.16609 30.4749 9.15945 30.4868 9.15547C30.4988 9.15015 30.5121 9.1475 30.5267 9.1475C30.5333 9.1475 30.5413 9.14883 30.5479 9.15016C30.5545 9.15148 30.5612 9.15281 30.5678 9.15547V9.15547ZM30.6169 9.09705H30.6621L30.6408 9.20194L30.7006 9.15148H30.7537L30.6727 9.21521L30.7311 9.29089H30.6807L30.6355 9.22982L30.6236 9.29089H30.5798L30.6169 9.09705ZM30.8825 9.15547L30.8759 9.18999C30.8679 9.186 30.8586 9.18335 30.8506 9.18069C30.8413 9.17804 30.8334 9.17804 30.8267 9.17804C30.8174 9.17804 30.8108 9.17937 30.8055 9.18069C30.8015 9.18335 30.7988 9.186 30.7988 9.19132C30.7988 9.19264 30.8002 9.1953 30.8028 9.19663C30.8055 9.19795 30.8108 9.19928 30.8188 9.20194L30.8267 9.20326C30.844 9.20725 30.8573 9.21123 30.8639 9.21787C30.8719 9.22318 30.8745 9.23247 30.8745 9.2431C30.8745 9.25903 30.8679 9.27098 30.8559 9.28027C30.8427 9.28957 30.8254 9.29355 30.8028 9.29355C30.7935 9.29355 30.7829 9.29355 30.7736 9.29222C30.7643 9.28957 30.7537 9.28824 30.7431 9.28558L30.7497 9.24974C30.7577 9.25505 30.767 9.25903 30.7763 9.26036C30.7842 9.26301 30.7935 9.26434 30.8042 9.26434C30.8135 9.26434 30.8201 9.26301 30.8254 9.26168C30.8294 9.25903 30.832 9.25505 30.832 9.25106C30.832 9.24841 30.8307 9.24575 30.8281 9.24442C30.8254 9.2431 30.8201 9.24044 30.8121 9.23911L30.8042 9.23779C30.7882 9.2338 30.7763 9.22982 30.7696 9.22318C30.763 9.21654 30.759 9.20725 30.759 9.19663C30.759 9.18069 30.7657 9.16874 30.7763 9.16078C30.7882 9.15281 30.8055 9.1475 30.8267 9.1475C30.836 9.1475 30.8453 9.14883 30.8546 9.15016C30.8639 9.15148 30.8732 9.15281 30.8825 9.15547" fill="black"/>
<path opacity="0.427835" d="M23.4844 55.3555C23.4844 56.5023 22.4547 57.6022 20.6218 58.4132C18.7889 59.2241 16.303 59.6797 13.7109 59.6797C11.1189 59.6797 8.63295 59.2241 6.80007 58.4132C4.9672 57.6022 3.9375 56.5023 3.9375 55.3555C3.9375 54.2086 4.9672 53.1087 6.80007 52.2978C8.63295 51.4868 11.1189 51.0312 13.7109 51.0312C16.303 51.0312 18.7889 51.4868 20.6218 52.2978C22.4547 53.1087 23.4844 54.2086 23.4844 55.3555V55.3555Z" fill="url(#paint29_radial)"/>
<path fill-rule="evenodd" clip-rule="evenodd" d="M12.3616 56.832C12.3978 56.7777 12.9888 57.5313 12.9888 57.5313C15.5802 54.7129 22.1944 49.4468 23.9987 45.0549C20.3499 49.1002 14.3881 55.6081 12.3616 56.832Z" fill="#D4572D"/>
<path fill-rule="evenodd" clip-rule="evenodd" d="M7.89609 38.701C4.87665 38.5524 3.46998 40.4913 2.70908 42.3357C1.95398 44.7646 3.02137 49.3522 8.25208 49.0032C11.2357 49.0032 12.4215 45.9448 13.9918 45.1508C15.4188 44.6115 15.5311 44.5632 17.0388 44.5632C19.1341 44.5632 22.9231 43.0475 22.9231 41.5435C22.279 40.3367 20.5692 38.1876 17.4274 38.5539C15.4274 38.7865 13.5354 40.2155 13.0411 40.9266C11.8304 39.8592 10.2845 38.701 7.89609 38.701Z" fill="url(#paint30_linear)"/>
<path fill-rule="evenodd" clip-rule="evenodd" d="M13.4081 39.6563C18.633 34.4336 25.8132 39.2474 25.766 44.2005C25.7228 48.7285 22.2704 50.897 13.597 58.9509C4.51863 51.4584 1.31998 49.7306 1.36721 44.3584C1.41444 38.7972 7.56131 34.6236 13.4081 39.6563Z" fill="#C71807" stroke="#A40000"/>
<path opacity="0.427835" fill-rule="evenodd" clip-rule="evenodd" d="M12.7394 57.038C12.7755 56.9838 13.5659 57.6693 13.5659 57.6693C22.1643 49.8483 24.3586 48.3304 24.5567 45.2147C23.1852 48.3182 21.4417 49.2732 12.7394 57.038Z" fill="url(#paint31_linear)"/>
<path fill-rule="evenodd" clip-rule="evenodd" d="M7.81625 38.9263C4.59142 38.9263 2.86315 42.1326 2.87518 44.1775C2.88645 46.0932 2.91758 46.8349 4.33942 48.8161C5.80305 50.8556 11.7459 47.6044 13.6474 45.5761C15.5731 43.522 21.6745 43.9502 23.6387 41.8642C22.5319 40.4696 21.3116 38.9145 18.4924 38.9145C15.6893 38.9145 14.267 40.8155 13.404 41.5972C12.4265 40.6488 11.0092 38.9263 7.81625 38.9263Z" fill="url(#paint32_linear)"/>
<path opacity="0.252577" fill-rule="evenodd" clip-rule="evenodd" d="M8.50787 38.041C8.03956 38.0009 7.57271 38.0111 7.13677 38.0762C4.22797 38.5106 2.03102 41.1651 2.00396 44.3516C1.98145 46.9117 2.65444 48.4603 4.51763 50.4336C6.31329 52.3354 9.30704 54.6138 13.5879 58.1328C17.6846 54.3452 20.6316 51.8088 22.4649 49.8184C24.3674 47.7528 25.1167 46.2982 25.1368 44.1934C25.1575 42.0235 23.5286 39.7454 21.2872 38.6738C19.0457 37.6023 16.2935 37.6568 13.8516 40.0977C13.6208 40.3236 13.2566 40.3388 13.0079 40.1328C11.4462 38.7886 9.91278 38.1613 8.50787 38.041Z" stroke="url(#paint33_linear)"/>
<defs>
<radialGradient id="paint0_radial" cx="0" cy="0" r="1" gradientUnits="userSpaceOnUse" gradientTransform="translate(29.9999 48.3821) scale(25.5323 8.89922)">
<stop/>
<stop offset="1" stop-opacity="0"/>
</radialGradient>
<linearGradient id="paint1_linear" x1="58.7184" y1="18.7338" x2="6.26248" y2="18.7338" gradientUnits="userSpaceOnUse">
<stop stop-color="#555753"/>
<stop offset="0.61818" stop-color="#D5D9D2"/>
<stop offset="1" stop-color="#888A85"/>
</linearGradient>
<linearGradient id="paint2_linear" x1="23.1882" y1="47.134" x2="54.2545" y2="47.134" gradientUnits="userSpaceOnUse">
<stop stop-color="white"/>
<stop offset="1" stop-color="white" stop-opacity="0"/>
</linearGradient>
<linearGradient id="paint3_linear" x1="26.3424" y1="31.0352" x2="31.7429" y2="31.0352" gradientUnits="userSpaceOnUse">
<stop/>
<stop offset="1" stop-color="white"/>
</linearGradient>
<linearGradient id="paint4_linear" x1="33.9784" y1="29.7911" x2="40.6013" y2="29.9437" gradientUnits="userSpaceOnUse">
<stop/>
<stop offset="1" stop-color="white"/>
</linearGradient>
<linearGradient id="paint5_linear" x1="40.6185" y1="28.8777" x2="48.6446" y2="28.8777" gradientUnits="userSpaceOnUse">
<stop/>
<stop offset="1" stop-color="white"/>
</linearGradient>
<linearGradient id="paint6_linear" x1="8.72615" y1="29.3118" x2="18.4612" y2="29.4714" gradientUnits="userSpaceOnUse">
<stop/>
<stop offset="1" stop-color="white"/>
</linearGradient>
<linearGradient id="paint7_linear" x1="12.3894" y1="30.3647" x2="24.6716" y2="30.2641" gradientUnits="userSpaceOnUse">
<stop/>
<stop offset="1" stop-color="white"/>
</linearGradient>
<linearGradient id="paint8_linear" x1="32.4235" y1="49.4575" x2="27.9696" y2="48.3905" gradientUnits="userSpaceOnUse">
<stop stop-color="white"/>
<stop offset="1" stop-color="white" stop-opacity="0"/>
</linearGradient>
<linearGradient id="paint9_linear" x1="41.1538" y1="49.7331" x2="36.6408" y2="45.4392" gradientUnits="userSpaceOnUse">
<stop stop-color="white"/>
<stop offset="1" stop-color="white" stop-opacity="0"/>
</linearGradient>
<linearGradient id="paint10_linear" x1="26.0247" y1="47.7155" x2="21.5343" y2="46.0864" gradientUnits="userSpaceOnUse">
<stop stop-color="white"/>
<stop offset="1" stop-color="white" stop-opacity="0"/>
</linearGradient>
<linearGradient id="paint11_linear" x1="46.6772" y1="49.1389" x2="46.6772" y2="38.6338" gradientUnits="userSpaceOnUse">
<stop stop-color="white"/>
<stop offset="1" stop-color="white" stop-opacity="0"/>
</linearGradient>
<linearGradient id="paint12_linear" x1="13.4015" y1="45.5567" x2="13.4015" y2="34.7489" gradientUnits="userSpaceOnUse">
<stop stop-color="white"/>
<stop offset="1" stop-color="white" stop-opacity="0"/>
</linearGradient>
<linearGradient id="paint13_linear" x1="20.6116" y1="45.2556" x2="16.68" y2="44.8678" gradientUnits="userSpaceOnUse">
<stop stop-color="white"/>
<stop offset="1" stop-color="white" stop-opacity="0"/>
</linearGradient>
<linearGradient id="paint14_linear" x1="45.4805" y1="48.4053" x2="41.4478" y2="45.925" gradientUnits="userSpaceOnUse">
<stop stop-color="white"/>
<stop offset="1" stop-color="white" stop-opacity="0"/>
</linearGradient>
<radialGradient id="paint15_radial" cx="0" cy="0" r="1" gradientUnits="userSpaceOnUse" gradientTransform="translate(29.9982 21.2424) scale(18.5883 5.64396)">
<stop/>
<stop offset="1" stop-opacity="0"/>
</radialGradient>
<linearGradient id="paint16_linear" x1="55.6235" y1="10.5363" x2="5.10821" y2="10.5363" gradientUnits="userSpaceOnUse">
<stop stop-color="#6D6F6A"/>
<stop offset="0.61818" stop-color="#E7E8E5"/>
<stop offset="1" stop-color="#999B96"/>
</linearGradient>
<linearGradient id="paint17_linear" x1="36.6368" y1="5.31035" x2="23.3595" y2="5.31035" gradientUnits="userSpaceOnUse">
<stop stop-color="#95998E"/>
<stop offset="0.59524" stop-color="white"/>
<stop offset="1" stop-color="#DFDFDB"/>
</linearGradient>
<linearGradient id="paint18_linear" x1="33.8079" y1="8.2766" x2="21.6867" y2="21.7427" gradientUnits="userSpaceOnUse">
<stop stop-color="#BABDB6"/>
<stop offset="1" stop-color="white"/>
</linearGradient>
<radialGradient id="paint19_radial" cx="0" cy="0" r="1" gradientUnits="userSpaceOnUse" gradientTransform="translate(29.9988 8.96169) scale(11.1144 3.70481)">
<stop/>
<stop offset="1" stop-opacity="0"/>
</radialGradient>
<linearGradient id="paint20_linear" x1="22.3597" y1="16.7621" x2="59.6438" y2="16.7621" gradientUnits="userSpaceOnUse">
<stop stop-color="white"/>
<stop offset="1" stop-color="white" stop-opacity="0"/>
</linearGradient>
<radialGradient id="paint21_radial" cx="0" cy="0" r="1" gradientUnits="userSpaceOnUse" gradientTransform="translate(24.2497 18.0543) rotate(-10.7514) scale(24.6228 5.65758)">
<stop stop-color="white"/>
<stop offset="1" stop-color="white" stop-opacity="0"/>
</radialGradient>
<radialGradient id="paint22_radial" cx="0" cy="0" r="1" gradientUnits="userSpaceOnUse" gradientTransform="translate(37.3013 8.96156) scale(3.31934 1.99158)">
<stop/>
<stop offset="1" stop-opacity="0"/>
</radialGradient>
<radialGradient id="paint23_radial" cx="0" cy="0" r="1" gradientUnits="userSpaceOnUse" gradientTransform="translate(22.6954 8.96156) scale(3.31933 1.99158)">
<stop/>
<stop offset="1" stop-opacity="0"/>
</radialGradient>
<linearGradient id="paint24_linear" x1="37.1755" y1="7.05297" x2="36.8241" y2="8.5714" gradientUnits="userSpaceOnUse">
<stop stop-color="#888A85"/>
<stop offset="1" stop-color="#D3D7CF"/>
</linearGradient>
<linearGradient id="paint25_linear" x1="22.6126" y1="5.84552" x2="23.2162" y2="8.09713" gradientUnits="userSpaceOnUse">
<stop stop-color="#D3D7CF"/>
<stop offset="1" stop-color="#EEEEEC"/>
</linearGradient>
<linearGradient id="paint26_linear" x1="36.6368" y1="5.31035" x2="23.3595" y2="5.31035" gradientUnits="userSpaceOnUse">
<stop stop-color="#95998E"/>
<stop offset="0.59524" stop-color="white"/>
<stop offset="1" stop-color="#DFDFDB"/>
</linearGradient>
<linearGradient id="paint27_linear" x1="30.3303" y1="5.96319" x2="30.3303" y2="9.54582" gradientUnits="userSpaceOnUse">
<stop stop-opacity="0.32317"/>
<stop offset="1" stop-opacity="0"/>
</linearGradient>
<radialGradient id="paint28_radial" cx="0" cy="0" r="1" gradientUnits="userSpaceOnUse" gradientTransform="translate(21.3513 13.693) rotate(-1.4491) scale(18.4511 3.13002)">
<stop stop-color="white"/>
<stop offset="1" stop-color="white" stop-opacity="0"/>
</radialGradient>
<radialGradient id="paint29_radial" cx="0" cy="0" r="1" gradientUnits="userSpaceOnUse" gradientTransform="translate(13.7109 55.3555) scale(9.77344 4.32422)">
<stop/>
<stop offset="1" stop-opacity="0"/>
</radialGradient>
<linearGradient id="paint30_linear" x1="14.3014" y1="45.3776" x2="12.3484" y2="39.0595" gradientUnits="userSpaceOnUse">
<stop stop-color="#F5A108" stop-opacity="0"/>
<stop offset="1" stop-color="#FEFDC3" stop-opacity="0.742515"/>
</linearGradient>
<linearGradient id="paint31_linear" x1="22.263" y1="56.3688" x2="16.0287" y2="51.0273" gradientUnits="userSpaceOnUse">
<stop stop-color="#F5A108" stop-opacity="0"/>
<stop offset="1" stop-color="#FEFDC3" stop-opacity="0.742515"/>
</linearGradient>
<linearGradient id="paint32_linear" x1="13.3802" y1="46.6981" x2="11.5857" y2="37.3214" gradientUnits="userSpaceOnUse">
<stop stop-color="#F5A108" stop-opacity="0"/>
<stop offset="1" stop-color="#FEFDC3" stop-opacity="0.742515"/>
</linearGradient>
<linearGradient id="paint33_linear" x1="12.7613" y1="44.3785" x2="23.8714" y2="64.3473" gradientUnits="userSpaceOnUse">
<stop stop-color="white"/>
<stop offset="1" stop-color="white" stop-opacity="0"/>
</linearGradient>
</defs>
</svg>
