<svg viewBox="0 0 109 689" fill="none" xmlns="http://www.w3.org/2000/svg">
<path d="M10.8432 89.6017V52.0885H37.8529L74.9017 10.2743H90.6773L99.5211 0V31.5398L90.6773 42.7699H74.9017L37.8529 89.6017H10.8432Z" fill="black"/>
<path d="M34.9846 10.2743H52.6724L50.2822 12.4566L36.4188 27.2389L34.9846 28.6725V10.2743Z" fill="black"/>
<path d="M3.25295 138.634H28.5849L49.5742 114.388C59.8467 111.606 61.2524 113.732 62.3607 118.709L48.3679 137.194C48.6453 138.3 49.0699 138.664 50.5392 138.634H70.0809V134.073L79.9724 120.87V115.829C80.2732 114.781 79.2449 114.026 75.8711 112.468C73.9599 111.132 73.8342 110.442 75.8711 109.347C89.9471 108.392 95.8547 105.412 102.651 95.4238H105.787V125.671C101.727 136.171 96.2116 139.116 84.5563 142.715V151.597L75.1473 169.841V179.203H46.4378V160.959H44.2665L31.7212 179.203H3.25295V138.634Z" fill="black"/>
<path d="M69.8397 90.6227L58.0181 105.026C57.4867 108.154 59.8489 108.669 66.7033 107.427C74.5074 105.544 76.974 103.777 80.6962 97.8244C82.0608 93.9942 82.1463 92.528 80.6962 91.3429C76.6319 89.4071 74.2584 88.9683 69.8397 90.6227Z" fill="black"/>
<path d="M29.4154 235.535H7.59022V273.936H29.4154L42.3666 262.343H50.0414V273.936H76.6633L100.887 214.523V184.334H99.4478L75.7039 235.535H52.4398L60.1145 223.459H42.3666L29.4154 235.535Z" fill="black"/>
<path d="M74.2649 197.617L62.7527 217.18H51.0007L71.3869 197.617H74.2649Z" fill="black"/>
<path d="M0 476.703V439.88H24.4694L48.9388 411.895H67.7234L42.5125 439.88H63.2744L109 387.101V420.487L66.9819 476.703H39.0522V460.992H37.5692L26.6939 476.703H0Z" fill="black"/>
<path d="M71.678 407.477V387.101L53.6349 407.477H71.678Z" fill="black"/>
<path d="M59.9238 547.033H5.42159V582.966H61.1086L71.5351 569.376V555.786H79.592L86.7009 547.033V535.977H97.6014L104.947 525.612L105.184 493.365L95.7057 504.651H67.2697L58.265 515.938H84.5683L78.4071 523.078H51.63L40.2556 536.438H69.4024L59.9238 547.033Z" fill="black"/>
<path d="M5.42159 687.405V647.188C58.3301 653.121 80.211 643.488 104.261 601.366V637.195C78.8939 691.274 53.7343 689.397 5.42159 687.405Z" fill="black"/>
<path d="M68.8232 598.685L38.4483 634.514C38.4483 634.514 39.1715 639.389 48.8143 636.22C58.4571 633.051 70.7743 621 80.3946 603.315C79.7285 599.374 77.6984 598.081 68.8232 598.685Z" fill="black"/>
<path d="M82.9131 356.087C78.2489 379.374 19.3327 392.611 9.75886 372.51L10.0045 353.39V333.703C11.7227 336.644 13.1436 339.909 19.3326 341.716C19.3326 341.716 24.2424 343.83 40.6899 343.585C57.1373 343.34 74.8121 333.78 80.4583 319.562V317.601C78.6742 310.924 75.9435 311.496 70.3934 308.776C64.8434 306.056 61.2541 305.772 61.0648 301.422C60.8755 297.072 67.3134 292.085 73.5845 292.843C79.8556 293.6 78.2487 296.274 78.2487 296.274C77.756 297.821 75.3031 300.687 75.3029 300.932H92.2415C95.7834 296.382 97.1242 294.352 96.9057 292.843H99.1151L99.3606 324.465C98.4643 327.661 97.2317 329.432 93.7144 332.554H82.9131V356.087Z" fill="black"/>
<path d="M38.726 333.458C47.0133 333.366 51.5709 329.788 54.437 321.691C55.3911 318.962 53.8229 317.272 48.7908 314.092C42.0485 311.463 41.4018 309.087 40.6899 307.474L38.726 307.964V321.201C31.156 329.658 30.7761 333.033 38.726 333.458Z" fill="black"/>
</svg>
